<svg width="288" height="263" viewBox="0 0 288 263" fill="none" xmlns="http://www.w3.org/2000/svg">
    <path
        d="M113.674 254.577C113.638 247.367 114.091 243.177 116.805 225.553C118.549 214.224 119.976 204.641 119.976 204.258C119.976 202.766 121.554 203.748 126.73 208.464L132.111 213.367H150.089H168.067L180.711 221.147C187.665 225.426 199.716 232.989 207.492 237.954L221.63 246.981L230.826 246.445C235.883 246.149 240.16 245.889 240.329 245.865C240.497 245.844 239.254 245.012 237.565 244.02C235.877 243.028 234.495 241.978 234.495 241.688C234.495 241.397 237.716 238.56 241.653 235.382C272.051 210.848 288.567 197.07 287.985 196.731C287.61 196.513 285.216 196.001 282.666 195.594L278.029 194.854L251.35 211.232C236.676 220.239 224.337 227.738 223.93 227.897C223.401 228.102 223.137 226.878 223.009 223.621L222.828 219.059L175.808 180.994L128.788 142.928L125.854 136.527L122.92 130.126L91.9737 99.6896L61.0276 69.2528V40.2932V11.3337L52.9967 5.66687L44.9657 0L23.062 1.03656C11.0148 1.60668 1.11813 2.11537 1.06918 2.16704C1.02112 2.21858 0.693481 5.70787 0.343323 9.92081C-0.138367 15.7218 -0.11673 17.7471 0.430389 18.2667C0.829498 18.6441 7.56107 22.8669 15.3899 27.6507C23.2185 32.4346 29.8759 36.6758 30.1846 37.0757C30.7501 37.8083 45.1039 123.15 45.0453 125.431C45.0093 126.105 41.5921 132.722 37.4098 140.135C33.2272 147.548 29.9068 153.715 30.0311 153.839C30.1543 153.963 31.6564 153.729 33.3675 153.319C37.4113 152.351 38.4945 152.739 37.6846 154.863C37.3495 155.74 37.0774 156.694 37.0774 156.983C37.0774 157.605 42.5699 156.116 55.2036 152.069C60.2763 150.444 65.2384 149.025 66.2315 148.916L68.0364 148.717L69.7321 156.683C70.6643 161.065 71.9988 167.131 72.697 170.165C73.3955 173.198 74.7265 179.403 75.6553 183.952L77.3436 192.225L83.8736 195.595C87.4649 197.449 90.5518 199.115 90.7322 199.297C90.9124 199.479 88.5502 202.901 85.4811 206.902L79.9012 214.175L80.2694 218.109C80.4706 220.273 81.1042 226.019 81.6742 230.878L82.7106 239.714L86.5908 244.771L90.4709 249.827L84.895 255.418L79.319 261.008L84.4487 261.406C92.3034 262.015 108.956 262.998 111.47 263H113.712L113.67 254.574L113.674 254.577Z"
        fill="#3DA2F5" />
</svg>
    