<svg width="367" height="185" viewBox="0 0 367 185" fill="none" xmlns="http://www.w3.org/2000/svg">
    <g clipPath="url(#clip0_690_124565)">
        <path
            d="M281.368 104.365C284.5 104.439 287.104 101.803 287.186 98.4759C287.268 95.1486 284.791 92.3882 281.657 92.3136C278.523 92.239 275.921 94.875 275.841 98.2024C275.762 101.53 278.229 104.29 281.368 104.365Z"
            fill="#F6F9FC" />
        <path
            d="M298.4 33.2666L281.09 177.147L280.787 179.552L279.332 182.198L277.809 183.824L280.824 183.454L282.523 181.062L284.426 178.045L285.433 172.477L300.034 49.5951L303.529 19.1911L302.959 16.2293L300.882 14.0483L297.208 12.2727L300.345 16.9579L298.4 33.2666Z"
            fill="#F6F9FC" />
        <path
            d="M31.6055 177.739L34.854 176.421L37.692 176.523L37.4259 179.751L36.5404 178.923L34.5008 178.754L33.1352 179.263L31.6055 179.619V177.739Z"
            fill="#F6F9FC" />
        <path
            d="M21.5575 127.185L19.4557 117.293L18.3662 102.682L18.6796 88.2538L20.662 85.7645L23.4131 84.2774L25.2512 84.3495L29.1514 81.9547L34.932 80.6938L37.2428 79.8607L38.571 80.9226L39.6132 80.6938L44.1377 80.1965L47.2544 80.8132L53.0773 82.6087L56.2063 73.6511L64.3873 76.4762L61.7457 85.9013L60.9895 89.8528L58.4823 93.0211L56.1118 94.1277L52.9653 94.0183L47.3563 92.2576L48.212 95.1448L49.8536 103.754L50.0402 107.979L50.366 108.937L50.468 110.601L50.1496 110.882L40.6355 112.958L32.9993 114.002L27.4252 114.642L26.8904 125.293L21.5575 127.185Z"
            fill="#F6F9FC" />
        <path
            d="M295.193 90.1938L297.068 96.3637L298.725 102.208L299.014 105.868L298.392 110.345L296.748 112.66L294.715 113.177L292.502 112.749L295.193 90.1938Z"
            fill="#F6F9FC" />
        <path
            d="M315.642 121.502L318.418 112.323L319.669 110.637L321.017 109.859L322.639 109.372L323.581 109.705L325.641 110.809L326.768 112.49L327.061 114.425L324.89 126.108L323.882 127.854L321.746 129.294L319.355 129.527L317.564 128.923L315.975 127.521L314.97 125.282L315.279 122.713L315.642 121.502Z"
            fill="#F6F9FC" />
        <path
            d="M298.724 113.886L305.345 62.6873L306.317 60.1135L308.004 58.7233L310.583 57.47L313.508 58.0419L315.453 59.156L316.697 60.8819L317.282 64.4555L313.217 114.145L312.193 117.589L309.882 119.972L307.295 121.078L304.42 120.951L301.144 119.278L299.186 116.413L298.724 113.886Z"
            fill="#F6F9FC" />
        <path
            d="M86.2039 27.5962L280.777 27.5938L263.366 169.507L67.1309 169.517L78.4956 75.7687L84.4926 27.646L86.2039 27.5962Z"
            fill="#F6F9FC" />
        <path d="M79.2744 135.958H267.107" stroke="#B7DEFB" stroke-width="0.486745"
            stroke-miterlimit="10" />
        <path d="M82.0957 110.297H269.931" stroke="#B7DEFB" stroke-width="0.486745"
            stroke-miterlimit="10" />
        <path d="M85.4803 84.6316H273.313" stroke="#B7DEFB" stroke-width="0.486745"
            stroke-miterlimit="10" />
        <path d="M88.8633 59.4504H276.698" stroke="#B7DEFB" stroke-width="0.486745"
            stroke-miterlimit="10" />
        <path opacity="0.42"
            d="M76.0059 161.619L82.4854 155.76L104.543 135.958L130.735 130.638L158.293 114.509L185.285 101.781L212.33 90.3293L239.853 75.7938L267.129 60.9474L277.412 51.853L276.318 64.7398L264.503 161.197L76.0059 161.619Z"
            fill="#B7DEFB" />
        <path
            d="M76.4277 161.2L104.542 135.961L130.734 130.642L158.292 114.512L185.284 101.785L212.329 90.3329L239.852 75.7974L267.258 60.8366L277.846 51.4736"
            stroke="#60CDC8" stroke-width="0.730117" stroke-miterlimit="10" stroke-linecap="round" />
        <path
            d="M76.4277 161.195L102.734 150.163L129.197 143.123L156.058 132.601L182.145 127.053L210.26 107.542L236.173 106.728H261.761L271.499 103.195"
            stroke="#2E3192" stroke-width="0.730117" stroke-miterlimit="10" stroke-linecap="round" />
        <path d="M126.922 161.622L143.416 27.5938" stroke="#B7DEFB" stroke-width="0.486745"
            stroke-miterlimit="10" />
        <path d="M152.512 161.622L168.945 27.5938" stroke="#B7DEFB" stroke-width="0.486745"
            stroke-miterlimit="10" />
        <path d="M178.105 161.622L194.549 27.5938" stroke="#B7DEFB" stroke-width="0.486745"
            stroke-miterlimit="10" />
        <path d="M203.694 161.622L220.121 27.5938" stroke="#B7DEFB" stroke-width="0.486745"
            stroke-miterlimit="10" />
        <path d="M229.323 161.199L245.715 27.5938" stroke="#B7DEFB" stroke-width="0.486745"
            stroke-miterlimit="10" />
        <path d="M254.943 161.199L271.335 27.5938" stroke="#B7DEFB" stroke-width="0.486745"
            stroke-miterlimit="10" />
        <path d="M101.333 161.622L117.764 27.5938" stroke="#B7DEFB" stroke-width="0.486745"
            stroke-miterlimit="10" />
        <path d="M86.3309 74.5872L76.0059 161.621L263.861 161.199" stroke="#2E3192"
            stroke-width="0.730117" stroke-miterlimit="10" stroke-linecap="round" />
        <path d="M91.9081 27.5938L90.6992 37.7773" stroke="#2E3192" stroke-width="0.730117"
            stroke-miterlimit="10" stroke-linecap="round" />
        <path
            d="M299.472 15.221L296.487 12.575L292.358 12.1572H81.0372L77.4479 12.7143L75.0128 14.8206L74.1522 17.0588L71.7892 36.8067L71.6499 37.9805H82.3455V37.9009L83.6091 27.6005H280.769L263.358 169.514H66.2051L77.8409 74.6837V74.3629H67.2846L54.9374 178.173L55.5866 181.19L57.0292 183.038L59.2181 184.199L78.8508 184.517H272.73L277.1 183.771L279.764 181.533L281.065 178.469L300.181 18.4539L299.472 15.221ZM287.184 98.4703C287.102 101.798 284.498 104.439 281.366 104.359C278.235 104.28 275.757 101.524 275.839 98.1967C275.921 94.8693 278.523 92.2283 281.655 92.3079C284.786 92.3875 287.266 95.1404 287.184 98.4703Z"
            fill="#F6F9FC" />
        <path
            d="M93.9412 56.3199L91.5882 71.1116C91.4376 72.058 90.9539 72.9196 90.2243 73.541C89.4946 74.1625 88.5669 74.5029 87.6084 74.5011H42.1321C41.6169 74.5015 41.1078 74.39 40.6399 74.1744C40.1721 73.9588 39.7566 73.6443 39.4221 73.2525C39.0877 72.8607 38.8424 72.401 38.703 71.9051C38.5637 71.4092 38.5336 70.889 38.615 70.3804L40.8536 56.3273L42.3958 46.6287L43.1594 41.839C43.3306 40.7592 43.8816 39.776 44.7133 39.0661C45.545 38.3563 46.6028 37.9666 47.6963 37.967H93.1552C93.6124 37.9671 94.0642 38.0663 94.4793 38.2578C94.8945 38.4493 95.2631 38.7286 95.5599 39.0763C95.8566 39.4241 96.0744 39.832 96.1982 40.2721C96.3219 40.7121 96.3488 41.1738 96.2768 41.6252L95.4834 46.6337"
            fill="#F6F9FC" />
        <path d="M77.8386 74.677L66.2052 169.507H263.365L280.777 27.5938H83.6167L82.3531 37.8967"
            stroke="#2E3192" stroke-width="0.730117" stroke-miterlimit="10" stroke-linecap="round" />
        <path
            d="M105.567 136.056C105.64 135.39 105.235 134.8 104.664 134.738C104.093 134.676 103.572 135.166 103.5 135.833C103.428 136.499 103.832 137.089 104.403 137.151C104.974 137.213 105.495 136.723 105.567 136.056Z"
            fill="#60CDC8" />
        <path
            d="M103.856 150.199C103.928 149.533 103.524 148.943 102.953 148.881C102.382 148.819 101.861 149.309 101.789 149.976C101.717 150.642 102.121 151.232 102.692 151.294C103.263 151.356 103.784 150.866 103.856 150.199Z"
            fill="#2E3192" />
        <path
            d="M129.738 143.206C129.81 142.539 129.406 141.949 128.835 141.887C128.264 141.826 127.743 142.316 127.671 142.982C127.599 143.648 128.003 144.239 128.574 144.3C129.145 144.362 129.666 143.872 129.738 143.206Z"
            fill="#2E3192" />
        <path
            d="M157.082 132.706C157.154 132.04 156.75 131.449 156.179 131.388C155.608 131.326 155.087 131.816 155.014 132.482C154.942 133.149 155.347 133.739 155.917 133.801C156.488 133.862 157.01 133.372 157.082 132.706Z"
            fill="#2E3192" />
        <path
            d="M183.368 127.158C183.44 126.492 183.036 125.902 182.465 125.84C181.894 125.778 181.373 126.268 181.301 126.934C181.228 127.601 181.633 128.191 182.204 128.253C182.774 128.315 183.296 127.824 183.368 127.158Z"
            fill="#2E3192" />
        <path
            d="M211.281 107.644C211.353 106.978 210.949 106.388 210.378 106.326C209.807 106.264 209.286 106.754 209.214 107.42C209.142 108.087 209.546 108.677 210.117 108.739C210.688 108.801 211.209 108.311 211.281 107.644Z"
            fill="#2E3192" />
        <path
            d="M237.192 106.835C237.264 106.168 236.86 105.578 236.289 105.516C235.718 105.454 235.197 105.945 235.125 106.611C235.053 107.277 235.457 107.867 236.028 107.929C236.599 107.991 237.12 107.501 237.192 106.835Z"
            fill="#2E3192" />
        <path
            d="M262.781 106.831C262.854 106.165 262.449 105.574 261.878 105.513C261.308 105.451 260.786 105.941 260.714 106.607C260.642 107.274 261.046 107.864 261.617 107.926C262.188 107.987 262.709 107.497 262.781 106.831Z"
            fill="#2E3192" />
        <path
            d="M159.314 114.605C159.386 113.939 158.982 113.349 158.411 113.287C157.84 113.225 157.319 113.715 157.247 114.382C157.175 115.048 157.579 115.638 158.15 115.7C158.721 115.762 159.242 115.272 159.314 114.605Z"
            fill="#60CDC8" />
        <path
            d="M213.35 90.4294C213.423 89.763 213.018 89.1728 212.447 89.111C211.876 89.0492 211.355 89.5392 211.283 90.2056C211.211 90.8719 211.615 91.4622 212.186 91.524C212.757 91.5858 213.278 91.0957 213.35 90.4294Z"
            fill="#60CDC8" />
        <path
            d="M268.145 61.052C268.217 60.3856 267.813 59.7953 267.242 59.7335C266.671 59.6717 266.15 60.1618 266.078 60.8281C266.006 61.4945 266.41 62.0848 266.981 62.1466C267.552 62.2084 268.073 61.7183 268.145 61.052Z"
            fill="#60CDC8" />
        <path d="M183.893 100.489L179.557 96.8733L154.214 97.1071" stroke="#362E83"
            stroke-width="0.486745" stroke-miterlimit="10" stroke-linecap="round" />
        <path d="M129.039 129.319L122.487 123.453L98.208 123.687" stroke="#362E83"
            stroke-width="0.486745" stroke-miterlimit="10" stroke-linecap="round" />
        <path
            d="M131.551 130.754C131.623 130.088 131.218 129.498 130.648 129.436C130.077 129.374 129.555 129.864 129.483 130.531C129.411 131.197 129.815 131.787 130.386 131.849C130.957 131.911 131.478 131.421 131.551 130.754Z"
            fill="#60CDC8" />
        <path
            d="M132.315 130.839C132.44 129.681 131.737 128.656 130.744 128.548C129.751 128.441 128.845 129.292 128.719 130.45C128.594 131.608 129.297 132.634 130.29 132.741C131.283 132.849 132.189 131.997 132.315 130.839Z"
            stroke="#362E83" stroke-width="0.486745" stroke-miterlimit="10" stroke-linecap="round" />
        <path
            d="M187.069 101.965C187.194 100.807 186.491 99.7808 185.498 99.6734C184.505 99.5659 183.598 100.417 183.473 101.575C183.348 102.733 184.051 103.759 185.044 103.867C186.037 103.974 186.943 103.122 187.069 101.965Z"
            stroke="#362E83" stroke-width="0.486745" stroke-miterlimit="10" stroke-linecap="round" />
        <path
            d="M241.668 75.9848C241.794 74.8269 241.091 73.8011 240.098 73.6936C239.105 73.5861 238.198 74.4377 238.073 75.5956C237.947 76.7535 238.651 77.7793 239.644 77.8868C240.637 77.9943 241.543 77.1427 241.668 75.9848Z"
            stroke="#362E83" stroke-width="0.486745" stroke-miterlimit="10" stroke-linecap="round" />
        <path
            d="M186.304 101.883C186.377 101.217 185.972 100.626 185.401 100.565C184.831 100.503 184.309 100.993 184.237 101.659C184.165 102.326 184.569 102.916 185.14 102.978C185.711 103.039 186.232 102.549 186.304 101.883Z"
            fill="#60CDC8" />
        <path d="M98.208 120.478H112.538" stroke="#362E83" stroke-width="0.501347"
            stroke-miterlimit="10" stroke-linecap="round" />
        <path d="M114.849 120.478H121.472" stroke="#362E83" stroke-width="0.501347"
            stroke-miterlimit="10" stroke-linecap="round" />
        <path
            d="M66.9202 177.61L65.3556 173.034L59.6123 175.7L60.5177 179.505L61.9852 178.736L63.6443 178.935L64.7636 179.338L65.6019 179.617L66.751 179.221L67.1316 178.408L66.9202 177.61Z"
            fill="#F6F9FC" />
        <path
            d="M292.368 137.751L325.85 137.876L323.959 147.922L320.4 148.313L318.166 184.521H286.368L292.368 137.751Z"
            fill="#B7DEFB" />
        <path
            d="M319.28 149.041L318.84 157.034H319.148L318.969 160.473L318.653 160.483L317.345 184.351H317.964L320.337 148.583L319.28 149.041Z"
            fill="white" />
        <path d="M300.89 138.288L324.187 139.186L323.617 147.564L325.669 138.037L300.89 138.288Z"
            fill="white" />
        <path
            d="M319.279 117.902C320.318 117.902 321.16 117.061 321.16 116.022C321.16 114.984 320.318 114.142 319.279 114.142C318.241 114.142 317.399 114.984 317.399 116.022C317.399 117.061 318.241 117.902 319.279 117.902Z"
            fill="#60CDC8" />
        <path
            d="M320.136 113.175C320.608 113.175 320.991 112.792 320.991 112.32C320.991 111.847 320.608 111.464 320.136 111.464C319.663 111.464 319.28 111.847 319.28 112.32C319.28 112.792 319.663 113.175 320.136 113.175Z"
            fill="#60CDC8" />
        <path
            d="M310.367 67.386C311.931 67.3851 313.448 66.8546 314.672 65.8809C315.896 64.9072 316.753 63.5479 317.105 62.0244C316.81 60.8292 316.153 59.7541 315.225 58.9452C314.296 58.1363 313.141 57.6328 311.917 57.5033C310.36 57.3384 308.8 57.7891 307.572 58.7591C306.343 59.729 305.543 61.1411 305.343 62.6934L305.054 64.8992C305.703 65.6785 306.515 66.3054 307.433 66.7352C308.351 67.1651 309.353 67.3873 310.367 67.386Z"
            fill="#60CDC8" />
        <path
            d="M244.266 48.6746H117.235C116.302 48.6746 115.38 48.4754 114.531 48.0903C113.682 47.7052 112.925 47.143 112.311 46.4415C111.696 45.74 111.239 44.9154 110.97 44.0228C110.7 43.1303 110.624 42.1905 110.748 41.2663C110.958 39.695 111.731 38.2534 112.924 37.2093C114.118 36.1651 115.649 35.5893 117.235 35.5889H244.266C245.199 35.5888 246.121 35.788 246.97 36.1732C247.819 36.5583 248.576 37.1204 249.191 37.8219C249.805 38.5234 250.262 39.3481 250.532 40.2406C250.801 41.1332 250.877 42.073 250.753 42.9971C250.544 44.5689 249.771 46.0111 248.578 47.0554C247.384 48.0998 245.852 48.6752 244.266 48.6746Z"
            fill="#F6F9FC" />
        <path d="M56.21 167.466L67.2862 74.6199" stroke="#2E3192" stroke-width="0.730117"
            stroke-miterlimit="10" stroke-linecap="round" />
        <path
            d="M71.6737 37.8349L74.1213 17.316C74.2916 15.8934 74.9774 14.5825 76.049 13.6312C77.1206 12.6799 78.5037 12.1541 79.9367 12.1533H294.322C295.15 12.1534 295.969 12.329 296.724 12.6687C297.479 13.0083 298.154 13.5042 298.704 14.1237C299.253 14.7432 299.665 15.4721 299.912 16.2625C300.159 17.0528 300.236 17.8865 300.137 18.7086L281.121 178.075C280.909 179.854 280.051 181.493 278.711 182.683C277.371 183.872 275.641 184.529 273.848 184.528H60.9955C60.1392 184.529 59.2925 184.348 58.5114 183.997C57.7302 183.646 57.0323 183.134 56.4637 182.494C55.8951 181.853 55.4688 181.1 55.2128 180.283C54.9568 179.466 54.877 178.604 54.9786 177.754L59.9533 136.087"
            stroke="#2E3192" stroke-width="0.730117" stroke-miterlimit="10" stroke-linecap="round" />
        <path
            d="M288.201 12.1533H295.819C296.909 12.1534 297.986 12.3843 298.98 12.8309C299.974 13.2775 300.862 13.9297 301.585 14.7443C302.309 15.559 302.851 16.5176 303.177 17.5572C303.503 18.5967 303.605 19.6935 303.476 20.7752L285.004 175.583C284.71 178.048 283.523 180.319 281.666 181.966C279.81 183.614 277.413 184.524 274.931 184.523H260.895"
            stroke="#2E3192" stroke-width="0.730117" stroke-miterlimit="10" stroke-linecap="round" />
        <path
            d="M83.9864 57.2985H47.4223C47.2156 57.2986 47.0113 57.2538 46.8236 57.1673C46.636 57.0807 46.4693 56.9544 46.3352 56.7972C46.2011 56.6399 46.1027 56.4555 46.0469 56.2565C45.9911 56.0575 45.9792 55.8488 46.012 55.6448L46.9198 49.925C46.9749 49.5701 47.1561 49.247 47.4303 49.015C47.7044 48.7829 48.0531 48.6575 48.4123 48.6617H84.7774C85.014 48.6617 85.2478 48.7129 85.4627 48.812C85.6776 48.911 85.8685 49.0554 86.0222 49.2353C86.1758 49.4152 86.2887 49.6263 86.3529 49.8539C86.4171 50.0816 86.4312 50.3205 86.3942 50.5542L85.5286 55.978C85.472 56.3462 85.2853 56.6818 85.0024 56.9241C84.7194 57.1664 84.359 57.2992 83.9864 57.2985Z"
            fill="#60CDC8" />
        <path
            d="M51.9499 53.3204C52.0418 52.3883 51.3611 51.5581 50.4294 51.4663C49.4977 51.3745 48.6679 52.0557 48.576 52.9879L48.5667 53.0819C48.4748 54.0141 49.1556 54.8442 50.0873 54.936C51.019 55.0279 51.8487 54.3466 51.9406 53.4145L51.9499 53.3204Z"
            fill="white" />
        <path
            d="M77.0483 62.2081C77.1402 61.2759 76.4595 60.4458 75.5278 60.354C74.5961 60.2622 73.7663 60.9434 73.6744 61.8756L73.6651 61.9696C73.5732 62.9018 74.254 63.7319 75.1857 63.8237C76.1173 63.9156 76.9471 63.2343 77.039 62.3022L77.0483 62.2081Z"
            stroke="#362E83" stroke-width="0.501347" stroke-miterlimit="10" stroke-linecap="round" />
        <path
            d="M62.7258 74.6435C62.7258 74.539 62.7532 74.4346 62.7656 74.3301C62.7842 74.1664 62.7424 74.0016 62.6481 73.8665C62.5538 73.7314 62.4133 73.6354 62.2532 73.5965L62.1637 73.5766C62.1637 73.5343 63.4546 69.2197 63.8128 68.0832C64.171 66.9467 63.7034 66.3001 63.1785 66.1062C62.8687 66.0236 62.5419 66.0305 62.2358 66.126C62.0844 65.8751 61.8545 65.6811 61.5816 65.574C61.4429 65.5423 61.299 65.5401 61.1593 65.5675C61.0196 65.5949 60.8873 65.6514 60.7708 65.7331C60.7708 65.7331 60.4723 65.1985 60.0693 65.0716C59.6664 64.9448 59.2336 65.2756 59.2336 65.2756L60.0867 59.4912C60.1034 59.3646 60.0722 59.2364 59.9992 59.1317C59.9263 59.0269 59.8169 58.9532 59.6924 58.9249C59.5679 58.8966 59.4373 58.9157 59.3262 58.9786C59.2152 59.0415 59.1316 59.1436 59.0918 59.2649L56.5746 67.26C56.5746 67.26 55.0573 67.168 54.816 67.934C54.5748 68.6999 54.53 70.7739 54.53 70.7739L54.2813 72.1019L53.831 72.0397C53.7075 72.0223 53.5816 72.0418 53.4692 72.0958C53.3568 72.1498 53.2629 72.2359 53.1993 72.3431C52.7917 73.0535 52.5304 73.8381 52.4307 74.6509L62.7258 74.6435Z"
            fill="#2E3192" />
        <path
            d="M93.9412 56.3199L91.5882 71.1116C91.4376 72.058 90.9539 72.9196 90.2243 73.541C89.4946 74.1625 88.5669 74.5029 87.6084 74.5011H42.1321C41.6169 74.5015 41.1078 74.39 40.6399 74.1744C40.1721 73.9588 39.7566 73.6443 39.4221 73.2525C39.0877 72.8607 38.8424 72.401 38.703 71.9051C38.5637 71.4092 38.5336 70.889 38.615 70.3804L40.8536 56.3273L42.3958 46.6287L43.1594 41.839C43.3306 40.7592 43.8816 39.776 44.7133 39.0661C45.545 38.3563 46.6028 37.9666 47.6963 37.967H93.1552C93.6124 37.9671 94.0642 38.0663 94.4793 38.2578C94.8945 38.4493 95.2631 38.7286 95.5599 39.0763C95.8566 39.4241 96.0744 39.832 96.1982 40.2721C96.3219 40.7121 96.3488 41.1738 96.2768 41.6252L95.4834 46.6337"
            stroke="#2E3192" stroke-width="0.486745" stroke-miterlimit="10" stroke-linecap="round" />
        <path
            d="M57.211 70.4201L57.4921 69.3035L57.6239 66.4387L58.2184 65.9115H59.2332L60.457 62.3553L61.8997 57.7696L62.5414 57.4338L62.8747 57.7696L62.0464 63.7877L62.8847 63.5838L63.5861 64.2453L64.3945 64.0861L65.0487 64.6382L66.1928 64.7153L66.7202 65.5161L66.556 66.8167L64.8273 71.9744L57.211 70.4201Z"
            fill="#F5BD84" />
        <path
            d="M19.5076 129.673L18.4032 129.728L18.2241 128.872L17.9355 127.415L18.2216 126.356L19.5847 125.963L27.5094 124.635L28.5018 125.647L28.8575 128.211L28.671 129.039L25.9871 129.335L19.5076 129.673Z"
            fill="#689BDD" />
        <path
            d="M13.6219 145.619L13.2588 140.735L13.7985 139.768L26.7328 139.002L26.7925 162.933L16.7436 163.821C16.7436 163.821 14.8532 164.116 14.7338 163.348C14.6144 162.58 13.6219 145.619 13.6219 145.619Z"
            fill="#A1A1A1" />
        <path
            d="M20.5965 135.274L20.1836 129.632L27.7526 129.189L27.9019 137.52L22.5814 137.875C22.5814 137.875 21.2507 137.58 21.0144 137.256C20.7781 136.933 20.5965 135.274 20.5965 135.274Z"
            fill="#F5BD84" />
        <path
            d="M26.8945 75.1576L25.0886 72.5763L22.3849 68.0129L21.1885 63.8599L22.0441 62.1465L22.7829 61.9102L23.5813 61.4676L24.6459 59.7541L27.0984 57.981L27.2377 57.5981L27.5934 57.2201L28.5237 56.0239L30.6728 54.7606L33.1999 54.7158L34.8863 55.6011L35.9484 57.1753L36.5031 59.0603L35.3291 61.1866L34.7222 61.9401L33.2745 62.6787V63.5665L32.8641 64.1409L33.5407 65.7822L33.3939 67.1997L32.9188 67.5827L31.1777 67.3763L29.9141 67.9607L29.8121 68.9082L30.0833 69.8582L30.822 70.9225L32.2398 71.1289L32.5358 71.5417L32.7124 72.902L32.1527 74.1728L30.0236 74.9711L26.892 76.0031L26.8945 75.1576Z"
            fill="#AC817A" />
        <path
            d="M35.5825 61.9124L36.7938 65.3393L38.8036 67.9952L39.0101 68.796L38.331 69.741L38.9205 71.81L38.4778 74.0258L37.2341 75.7989L35.7591 77.1468L36.3809 80.1011C36.3809 80.1011 32.1251 82.2299 28.3717 81.4316L27.4265 77.6491L27.1777 75.7591L29.4164 75.1971L32.232 74.2919L32.7295 72.5785L32.3465 71.0714C32.3465 71.0714 30.3964 70.8924 30.1874 70.2433C30.0183 69.534 29.9003 68.8134 29.8342 68.0872L31.7619 67.1696L32.5231 67.7018L33.2693 67.3785L33.5354 66.0779L32.9136 64.3644L33.2693 63.5662V62.6784L35.3387 61.4673L35.5825 61.9124Z"
            fill="#F5BD84" />
        <path
            d="M71.6533 183.952H74.0039H74.3819L74.27 182.534L72.7627 181.577L67.5492 178.177L66.9572 178.996L65.1738 179.637L63.4251 178.837L61.0622 178.914L60.0498 180.408V183.738L71.6533 183.952Z"
            fill="#A1A1A1" />
        <path
            d="M37.0117 183.974C37.1931 183.816 37.3369 183.619 37.4329 183.398C37.5288 183.177 37.5744 182.937 37.5664 182.696C37.5365 181.873 37.5664 180.99 37.5664 180.99L37.2057 180.274L37.3972 179.431L35.5914 178.752L33.0742 179.06L32.6041 179.545L30.3655 179.667L29.8705 180.597L27.8806 182.395V183.972L37.0117 183.974Z"
            fill="#A1A1A1" />
        <path
            d="M27.1055 119.622L27.1602 120.53L28.2621 172.918L28.5034 174.994L29.5879 175.972H37.7464L38.7687 175.41L39.2164 174.3L39.8656 142.78L40.2934 124.89H41.3431L47.7431 148.808L54.1057 170.923L55.5733 175.158L56.7174 175.474L60.3241 174.358L65.754 172.284L66.3311 169.993L50.9617 112.597L50.3871 110.727L48.5291 111.341L47.4147 111.64L34.4183 113.806L30.6674 114.251L27.1055 114.624V119.622Z"
            fill="#689BDD" />
        <path
            d="M65.9746 172.057L48.0283 106.837L49.1252 106.39L49.6078 107.583L66.4248 170.356L66.3253 171.435L65.9746 172.057Z"
            fill="white" />
        <path
            d="M65.484 173.292L61.753 175.246C61.392 175.434 61.0973 175.728 60.9087 176.089C60.7202 176.45 60.6467 176.86 60.6984 177.263L61.0516 179.019L60.0566 180.407L58.4921 174.923L65.1507 172.64L65.484 173.292Z"
            fill="#2E3192" />
        <path
            d="M37.4867 176.671L33.8875 177.054C33.4983 177.095 33.1338 177.264 32.8504 177.534C32.567 177.804 32.3807 178.16 32.3204 178.546L32.1662 179.573L30.9101 179.509L30.5395 179.573L30.0146 176.037L37.6633 175.875L37.4867 176.671Z"
            fill="#2E3192" />
        <path
            d="M36.392 79.8261C37.3124 79.7017 38.6306 80.5447 38.6306 81.1316C38.6306 81.1316 35.4916 83.5414 32.0342 83.7751C28.828 83.9915 27.4923 83.4817 27.4923 83.4817C27.4923 83.4817 27.0271 82.1289 28.2012 81.3082"
            stroke="#2E3192" stroke-width="0.486745" stroke-miterlimit="10" stroke-linecap="round" />
        <path d="M35.7128 76.7302C37.9713 75.9095 39.4762 73.1914 38.4688 70.2992L38.2002 69.6104"
            stroke="#2E3192" stroke-width="0.486745" stroke-miterlimit="10" stroke-linecap="round" />
        <path
            d="M32.7283 67.6532L32.3129 67.4716C31.9224 67.2994 31.4907 67.2433 31.0692 67.31H31.0219C30.6689 67.3953 30.3563 67.6003 30.1373 67.89C29.9183 68.1797 29.8063 68.5362 29.8205 68.8991C29.8205 70.1276 30.7409 71.1372 31.8701 71.1546C31.8701 71.1546 32.7631 71.2218 33.2979 70.712"
            stroke="#2E3192" stroke-width="0.467275" stroke-miterlimit="10" stroke-linecap="round" />
        <path d="M32.8051 68.6939C32.8051 68.6939 31.4569 68.2338 30.6162 68.5422" stroke="#2E3192"
            stroke-width="0.486745" stroke-miterlimit="10" stroke-linecap="round" />
        <path d="M32.2758 68.5476C32.2758 68.5476 32.2285 69.5424 31.7783 69.7388" stroke="#2E3192"
            stroke-width="0.486745" stroke-miterlimit="10" stroke-linecap="round" />
        <path d="M28.1926 81.3081L26.7822 74.9741" stroke="#2E3192" stroke-width="0.486745"
            stroke-miterlimit="10" stroke-linecap="round" />
        <path d="M35.5889 76.2896L36.3923 79.8258" stroke="#2E3192" stroke-width="0.486745"
            stroke-miterlimit="10" stroke-linecap="round" />
        <path
            d="M28.1032 83.3943C26.9245 83.3423 25.7458 83.4981 24.6209 83.8543C20.3128 85.2097 17.4623 87.413 17.5568 93.8539L17.6389 98.8276L19.1164 126.071"
            stroke="#2E3192" stroke-width="0.486745" stroke-miterlimit="10" stroke-linecap="round" />
        <path
            d="M41.0928 124.826L55.007 174.098C55.0808 174.349 55.205 174.581 55.372 174.782C55.5389 174.983 55.7451 175.148 55.978 175.267C56.2108 175.385 56.4654 175.455 56.7262 175.472C56.9869 175.488 57.2483 175.452 57.4944 175.364L65.148 172.628C65.6044 172.466 65.9823 172.136 66.2056 171.706C66.429 171.276 66.4812 170.777 66.3519 170.311L52.5918 118.724L50.388 110.716"
            stroke="#2E3192" stroke-width="0.486745" stroke-miterlimit="10" stroke-linecap="round" />
        <path
            d="M27.1055 114.623L28.3243 174.237C28.3353 174.722 28.5357 175.183 28.8825 175.522C29.2293 175.861 29.6949 176.05 30.1798 176.05H37.3658C37.8381 176.05 38.2926 175.87 38.6368 175.547C38.981 175.223 39.1892 174.781 39.2189 174.31L40.3407 124.993"
            stroke="#2E3192" stroke-width="0.486745" stroke-miterlimit="10" stroke-linecap="round" />
        <path
            d="M38.6211 81.13C38.6211 81.13 42.6158 79.5459 46.0533 80.4735C49.4908 81.401 53.7641 82.8285 53.7641 82.8285"
            stroke="#2E3192" stroke-width="0.486745" stroke-miterlimit="10" stroke-linecap="round" />
        <path d="M28.2872 172.752H39.2938" stroke="#2E3192" stroke-width="0.243372"
            stroke-miterlimit="10" stroke-linecap="round" />
        <path d="M37.6603 176.095L37.3867 180.41" stroke="#2E3192" stroke-width="0.486745"
            stroke-miterlimit="10" stroke-linecap="round" />
        <path d="M30.0947 176.049L30.54 179.585" stroke="#2E3192" stroke-width="0.486745"
            stroke-miterlimit="10" stroke-linecap="round" />
        <path d="M65.3545 172.604L67.123 178.269" stroke="#2E3192" stroke-width="0.486745"
            stroke-miterlimit="10" stroke-linecap="round" />
        <path d="M58.3877 175.047L60.0493 180.407" stroke="#2E3192" stroke-width="0.486745"
            stroke-miterlimit="10" stroke-linecap="round" />
        <path
            d="M27.3143 124.722C24.3149 125.095 21.3374 125.628 18.3947 126.318C18.3571 126.325 18.3219 126.342 18.2923 126.366C18.2628 126.391 18.2398 126.422 18.2255 126.458C17.8184 127.533 17.8407 128.723 18.2877 129.782C18.3087 129.83 18.344 129.869 18.3886 129.896C18.4332 129.922 18.4849 129.934 18.5364 129.929L27.4039 129.258"
            stroke="#2E3192" stroke-width="0.486745" stroke-miterlimit="10" stroke-linecap="round" />
        <path d="M54.6738 172.963L65.9739 168.892" stroke="#2E3192" stroke-width="0.243372"
            stroke-miterlimit="10" stroke-linecap="round" />
        <path
            d="M30.529 179.509L29.6809 180.874L28.0019 182.207C27.6487 182.551 27.8775 183.737 27.8775 183.737H37.3892C37.7523 182.648 37.3892 180.407 37.3892 180.407V179.536C37.3892 179.536 36.8793 178.835 35.4789 178.835C33.4417 178.835 32.5712 179.581 32.5264 179.581C31.1957 179.865 30.529 179.509 30.529 179.509Z"
            stroke="#2E3192" stroke-width="0.486745" stroke-miterlimit="10" stroke-linecap="round" />
        <path
            d="M60.047 180.412C60.047 180.412 59.6863 182.65 60.047 183.742H74.3418L74.3717 183.473C74.3581 183.19 74.2729 182.915 74.1241 182.674C73.9753 182.434 73.7678 182.234 73.521 182.095L70.4914 180.106L67.6036 178.253L67.1061 178.295C67.1061 178.295 67.3822 179.643 65.161 179.643C65.161 179.643 64.2457 178.731 62.2558 178.731C61.7521 178.722 61.2601 178.883 60.8593 179.188C60.4585 179.493 60.1723 179.924 60.047 180.412Z"
            stroke="#2E3192" stroke-width="0.486745" stroke-linecap="round" stroke-linejoin="round" />
        <path
            d="M27.6691 183.978V184.14C27.6723 184.324 27.7471 184.499 27.8775 184.629C28.008 184.759 28.1839 184.833 28.3681 184.836L36.5042 184.91C36.8008 184.914 37.0874 184.804 37.3046 184.602C37.5218 184.4 37.6529 184.122 37.6708 183.826L37.6907 183.49"
            fill="#2E3192" />
        <path
            d="M59.8133 183.808L59.9178 184.256C59.9564 184.417 60.0475 184.561 60.1767 184.664C60.306 184.768 60.466 184.825 60.6316 184.828L73.5186 184.912C73.7898 184.915 74.0516 184.813 74.2497 184.628C74.4479 184.443 74.5673 184.188 74.5832 183.918L74.6006 183.584"
            fill="#2E3192" />
        <path d="M59.9071 181.743C59.9071 181.743 63.6381 181.062 63.5187 183.733" stroke="#2E3192"
            stroke-width="0.243372" stroke-miterlimit="10" stroke-linecap="round" />
        <path d="M37.3879 181.743C37.3879 181.743 33.6568 181.062 33.7762 183.733" stroke="#2E3192"
            stroke-width="0.243372" stroke-miterlimit="10" stroke-linecap="round" />
        <path d="M37.4111 125.287L42.7614 124.342" stroke="#2E3192" stroke-width="0.486745"
            stroke-miterlimit="10" stroke-linecap="round" />
        <path
            d="M27.1038 114.624C27.1038 114.624 33.2998 114.052 40.6325 112.952C47.7414 111.891 50.3879 110.714 50.3879 110.714C50.5994 109.471 50.3556 108.663 50.0721 108.188C50.0299 108.125 49.9668 108.079 49.894 108.058C49.8211 108.037 49.7432 108.042 49.6741 108.073C44.1148 110.311 29.1534 111.828 27.1113 112.027C26.967 112.042 26.8924 112.162 26.8377 112.293C26.7357 112.555 26.4049 113.728 27.1038 114.624Z"
            stroke="#2E3192" stroke-width="0.486745" stroke-miterlimit="10" stroke-linecap="round" />
        <path
            d="M27.1114 112.035C27.1114 112.035 26.196 111.453 26.196 110.916C26.196 110.379 26.2731 102.809 26.2731 102.809L23.9648 94.7986"
            stroke="#2E3192" stroke-width="0.486745" stroke-miterlimit="10" stroke-linecap="round" />
        <path
            d="M49.8901 108.057C49.8901 108.057 50.2259 106.95 50.1388 106.197C50.0518 105.443 49.3727 97.6046 47.0818 92.4419"
            stroke="#2E3192" stroke-width="0.730117" stroke-miterlimit="10" stroke-linecap="round" />
        <path
            d="M34.9663 61.6443L33.143 62.7236L33.1903 62.8131C33.3092 63.0361 33.3417 63.2951 33.2816 63.5406C33.2215 63.786 33.073 64.0007 32.8645 64.1436L33.3967 65.6929C33.7176 66.6229 33.5783 67.2247 32.6953 67.655"
            stroke="#2E3192" stroke-width="0.486745" stroke-miterlimit="10" stroke-linecap="round" />
        <path
            d="M46.4932 92.0939L52.4628 93.8347C53.3379 94.0914 54.2554 94.171 55.1616 94.0687C56.0677 93.9664 56.9444 93.6843 57.7401 93.2389C58.5359 92.7935 59.2347 92.1938 59.7957 91.475C60.3566 90.7561 60.7684 89.9325 61.0069 89.0525L64.6086 75.5813"
            stroke="#2E3192" stroke-width="0.486745" stroke-miterlimit="10" stroke-linecap="round" />
        <path
            d="M38.2012 69.6087L38.716 69.0915C38.8577 68.9484 38.9441 68.7598 38.96 68.5591C38.976 68.3583 38.9204 68.1585 38.8031 67.9948L36.6242 64.941L35.3009 61.2903"
            stroke="#2E3192" stroke-width="0.486745" stroke-miterlimit="10" stroke-linecap="round" />
        <path
            d="M36.1199 66.6248C36.2682 66.5594 36.3022 66.3108 36.1957 66.0695C36.0892 65.8283 35.8826 65.6857 35.7343 65.7512C35.586 65.8166 35.5521 66.0652 35.6586 66.3065C35.7651 66.5477 35.9716 66.6903 36.1199 66.6248Z"
            fill="#2E3192" />
        <path
            d="M19.4562 128.474C19.72 128.474 19.9338 128.26 19.9338 127.997C19.9338 127.733 19.72 127.519 19.4562 127.519C19.1925 127.519 18.9786 127.733 18.9786 127.997C18.9786 128.26 19.1925 128.474 19.4562 128.474Z"
            fill="#2E3192" />
        <path
            d="M36.3967 63.5483L36.4241 63.7746C36.4367 63.8606 36.4276 63.9485 36.3976 64.0301C36.3677 64.1118 36.3178 64.1846 36.2525 64.2421L34.9964 65.2095C34.9616 65.2369 34.9207 65.2556 34.8772 65.2639C34.8337 65.2722 34.7888 65.2699 34.7464 65.2572C34.7039 65.2445 34.6652 65.2218 34.6334 65.191C34.6015 65.1602 34.5776 65.1222 34.5636 65.0802C34.5193 64.9823 34.5046 64.8737 34.5214 64.7676C34.5382 64.6615 34.5857 64.5627 34.6581 64.4833L35.8868 63.2946C36.0858 63.0957 36.3569 63.2349 36.3967 63.5483Z"
            fill="#2E3192" />
        <path
            d="M34.0189 62.2058C34.0189 62.2058 38.9314 59.8433 34.9716 55.6679C34.1756 54.8298 32.6956 54.5414 31.738 54.5911C28.5044 54.7602 27.0742 58.0851 27.0742 58.0851"
            stroke="#2E3192" stroke-width="0.486745" stroke-miterlimit="10" stroke-linecap="round" />
        <path d="M52.6984 82.4815L55.7031 73.9766" stroke="#2E3192" stroke-width="0.486745"
            stroke-miterlimit="10" stroke-linecap="round" />
        <path
            d="M61.7244 71.3662L65.0674 72.1073L65.5798 72.6818L65.3336 74.4997L64.8884 76.228L64.3884 76.4717L57.782 74.5867L55.4066 73.7984L55.1056 73.1543L55.7399 71.3488L56.3468 70.5356L57.6178 70.5978L61.7244 71.3662Z"
            fill="#689BDD" />
        <path
            d="M55.704 73.9771L64.1112 76.4465C64.2114 76.4778 64.3171 76.4877 64.4213 76.4754C64.5255 76.4631 64.626 76.429 64.7161 76.3752C64.8063 76.3215 64.8841 76.2493 64.9444 76.1635C65.0048 76.0776 65.0463 75.98 65.0664 75.877C65.2231 75.1434 65.442 73.9995 65.5788 72.8431C65.6012 72.6774 65.5612 72.5092 65.4665 72.3713C65.3718 72.2334 65.2292 72.1357 65.0664 72.0971C63.8227 71.7961 60.6762 71.0874 56.6318 70.5304C56.5084 70.5137 56.3829 70.5338 56.2709 70.5882C56.1589 70.6426 56.0656 70.7289 56.0025 70.8362C55.5739 71.5753 55.306 72.3964 55.2165 73.246C55.1979 73.4058 55.2367 73.5671 55.326 73.701C55.4153 73.8349 55.5492 73.9328 55.704 73.9771Z"
            stroke="#2E3192" stroke-width="0.486745" stroke-miterlimit="10" stroke-linecap="round" />
        <path
            d="M63.9717 74.6061C64.2355 74.6061 64.4493 74.3923 64.4493 74.1286C64.4493 73.8649 64.2355 73.6511 63.9717 73.6511C63.708 73.6511 63.4941 73.8649 63.4941 74.1286C63.4941 74.3923 63.708 74.6061 63.9717 74.6061Z"
            fill="#2E3192" />
        <path d="M28.0146 81.446C28.0146 81.446 34.1485 82.0528 36.6234 79.8569" stroke="#2E3192"
            stroke-width="0.486745" stroke-miterlimit="10" stroke-linecap="round" />
        <path d="M38.6005 126.312L37.5234 175.971" stroke="#2E3192" stroke-width="0.243372"
            stroke-miterlimit="10" stroke-linecap="round" />
        <path
            d="M29.9343 57.7325C24.7631 57.449 23.3602 61.7911 23.3602 61.7911C23.3602 61.7911 21.8429 61.6642 21.3703 63.5318C20.6241 66.4961 26.7853 74.9713 26.7853 74.9713"
            stroke="#2E3192" stroke-width="0.486745" stroke-miterlimit="10" stroke-linecap="round" />
        <path d="M36.4951 70.6331C36.774 70.7548 37.0853 70.781 37.3806 70.7077" stroke="#2E3192"
            stroke-width="0.486745" stroke-miterlimit="10" stroke-linecap="round" />
        <path
            d="M27.0615 75.7697L31.1234 74.7948C31.6813 74.6557 32.1621 74.3029 32.4622 73.8126C32.7624 73.3223 32.8577 72.7337 32.7277 72.1737L32.479 71.179"
            stroke="#2E3192" stroke-width="0.486745" stroke-miterlimit="10" stroke-linecap="round" />
        <path
            d="M28.9458 57.7513C28.9458 57.7513 29.692 55.1377 32.2266 54.8492L30.4855 54.7373L29.2418 55.3814L28.2817 56.2891L27.2245 57.5325L27.3365 58.0299L28.9458 57.7513Z"
            fill="#2E3192" />
        <path
            d="M30.4453 70.803C30.6202 71.2451 30.9558 71.6048 31.3848 71.8101C31.8137 72.0153 32.3044 72.0508 32.7585 71.9096L32.669 71.0243L30.4453 70.803Z"
            fill="#2E3192" />
        <path
            d="M19.6036 104.157L21.2913 104.045C21.8514 104.008 22.4035 104.194 22.8259 104.564C23.2484 104.934 23.5067 105.456 23.544 106.016L23.8076 109.974C23.8449 110.534 23.6582 111.086 23.2885 111.508C22.9188 111.93 22.3964 112.189 21.8362 112.226L19.9277 112.353C19.5156 112.38 19.1095 112.243 18.7988 111.971C18.488 111.699 18.298 111.315 18.2706 110.903L17.9471 106.047C17.9158 105.577 18.0725 105.114 18.3827 104.76C18.6929 104.405 19.1312 104.189 19.6012 104.157L19.6036 104.157Z"
            stroke="#2E3192" stroke-width="0.243372" stroke-miterlimit="10" />
        <path
            d="M24.416 97.2557L25.6224 102.834L25.1249 110.518C25.0951 110.974 25.1778 111.43 25.3656 111.847C25.5533 112.264 25.8405 112.628 26.2019 112.908C26.2019 112.908 26.1 114.305 26.5129 114.838L26.3363 124.698L25.5677 124.994C25.9553 125.603 26.1607 126.311 26.1597 127.033C26.1479 127.808 26.0076 128.577 25.7443 129.306L27.5774 129.204L27.2964 121.992L27.4307 114.634L28.2863 114.487C27.9754 114.172 27.7754 113.764 27.7166 113.325C27.6578 112.887 27.7434 112.441 27.9605 112.055L28.0202 111.945L27.1049 111.901L26.2019 110.906L26.3363 108.359L26.2616 102.762L24.5205 97.1189L24.416 97.2557Z"
            fill="#2E3192" />
        <path
            d="M29.862 74.9701C29.862 74.9701 27.2752 74.0102 25.0589 69.5339C25.0589 69.5339 22.8054 64.5329 24.9545 62.8195C24.9545 62.8195 24.054 59.9522 26.8772 58.3879L24.9395 59.2136L23.3601 61.7825L22.2358 62.1257L21.2607 64.0156L21.9124 66.4826L25.3947 73.2642L26.7976 74.8309L26.8871 75.8629L29.862 74.9701Z"
            fill="#2E3192" />
        <path
            d="M29.6674 75.3281L30.3614 78.842C30.472 79.4018 30.7827 79.9021 31.2354 80.2495C31.6882 80.5969 32.252 80.7675 32.8214 80.7295C33.3558 80.7175 33.889 80.6743 34.4183 80.6002C34.8637 80.4971 35.3004 80.3591 35.7242 80.1874C35.7242 80.1874 34.1969 81.6223 30.436 81.4731C28.0158 81.3761 28.1477 81.0777 28.1477 81.0777L27.1055 75.9051L29.6674 75.3281Z"
            fill="#2E3192" />
        <path
            d="M31.6919 81.4242C31.6919 81.4242 30.5179 82.0882 31.4929 83.8613C31.4929 83.8613 28.722 83.7519 28.0803 83.6624C27.4385 83.5728 27.4161 82.8417 27.4161 82.8417L27.9136 81.3496L31.6919 81.4242Z"
            fill="#2E3192" />
        <path
            d="M28.5913 114.636C28.5913 114.636 28.9022 121.241 29.049 127.18C29.0813 128.538 31.3846 174.069 31.3846 174.069C31.3846 174.069 31.4269 175.842 34.0884 175.842L31.0289 176.419L29.1684 175.755L28.3252 174.425L28.0143 163.256L27.3054 131.967L27.2158 114.947L27.4646 114.482L28.5913 114.636Z"
            fill="#2E3192" />
        <path
            d="M20.1836 129.811L20.5069 134.804C20.686 137.042 21.6561 137.933 22.8028 137.853L26.9865 137.579C27.3481 137.554 27.6858 137.39 27.9285 137.121C28.1712 136.852 28.2999 136.499 28.2874 136.137L28.2252 134.297"
            stroke="#2E3192" stroke-width="0.486745" stroke-miterlimit="10" stroke-linecap="round" />
        <path
            d="M22.3741 136.215L23.2994 136.165L23.3293 136.14L23.8666 133.292C23.8938 133.151 23.9673 133.023 24.0753 132.928C24.1834 132.833 24.3199 132.777 24.4635 132.768C24.5476 132.762 24.6304 132.79 24.6938 132.846C24.7572 132.901 24.7961 132.98 24.8018 133.064L25.063 136.966C25.063 136.966 25.1301 137.694 24.2446 137.749"
            stroke="#2E3192" stroke-width="0.486745" stroke-miterlimit="10" stroke-linecap="round" />
        <path
            d="M24.8186 133.315V133.273C24.8143 133.206 24.8232 133.138 24.845 133.074C24.8668 133.01 24.9009 132.951 24.9455 132.901C24.9901 132.85 25.0443 132.809 25.1049 132.779C25.1655 132.75 25.2314 132.732 25.2987 132.728C25.4338 132.72 25.5667 132.766 25.6683 132.855C25.7699 132.945 25.832 133.071 25.8409 133.206L26.1121 137.078C26.1225 137.156 26.1156 137.235 26.0916 137.31C26.0676 137.385 26.0273 137.454 25.9735 137.512C25.9197 137.569 25.8539 137.614 25.7806 137.643C25.7073 137.672 25.6286 137.685 25.5499 137.68"
            stroke="#2E3192" stroke-width="0.486745" stroke-miterlimit="10" stroke-linecap="round" />
        <path
            d="M25.8746 133.741L25.8423 133.226C25.8372 133.16 25.8454 133.094 25.8664 133.031C25.8875 132.968 25.9209 132.91 25.9647 132.86C26.0085 132.81 26.0618 132.77 26.1215 132.741C26.1812 132.712 26.2461 132.695 26.3124 132.692H26.4243C26.5227 132.686 26.6194 132.72 26.6934 132.785C26.7674 132.85 26.8128 132.942 26.8198 133.04L26.8919 133.652"
            stroke="#2E3192" stroke-width="0.486745" stroke-miterlimit="10" stroke-linecap="round" />
        <path
            d="M25.9521 129.261C26.0474 129.553 26.1777 129.832 26.3402 130.092C26.8003 130.855 27.5416 131.974 28.1186 132.33C28.1186 132.33 26.666 133.265 26.7332 134.319C26.768 134.864 28.2903 134.118 28.2903 134.118"
            stroke="#2E3192" stroke-width="0.486745" stroke-miterlimit="10" stroke-linecap="round" />
        <path d="M23.5477 129.539C23.4059 130.389 23.1775 131.223 22.8662 132.026" stroke="#2E3192"
            stroke-width="0.486745" stroke-miterlimit="10" stroke-linecap="round" />
        <path d="M27.0403 134.549L27.2169 137.076C27.2169 137.076 27.2766 137.548 26.6572 137.608"
            stroke="#2E3192" stroke-width="0.486745" stroke-miterlimit="10" stroke-linecap="round" />
        <path
            d="M18.329 139.496L14.0808 139.79C13.5929 139.824 13.2248 140.246 13.2585 140.734L14.8016 163.02C14.8354 163.508 15.2583 163.876 15.7461 163.842L19.9943 163.548C20.4822 163.514 20.8503 163.092 20.8166 162.604L19.2735 140.318C19.2397 139.83 18.8168 139.462 18.329 139.496Z"
            stroke="#2E3192" stroke-width="0.486745" stroke-miterlimit="10" stroke-linecap="round" />
        <path
            d="M28.813 162.904L21.5698 163.444C21.4787 163.451 21.3871 163.441 21.3002 163.412C21.2133 163.384 21.1328 163.339 21.0634 163.28C20.994 163.22 20.9371 163.148 20.8959 163.066C20.8548 162.985 20.8302 162.896 20.8236 162.805L19.274 140.423C19.2555 140.165 19.3405 139.909 19.5103 139.713C19.6801 139.517 19.9208 139.397 20.1794 139.379L27.9175 138.807L28.813 162.904Z"
            stroke="#2E3192" stroke-width="0.486745" stroke-miterlimit="10" stroke-linecap="round" />
        <path d="M17.8208 163.607L16.3135 139.587" stroke="#2E3192" stroke-width="0.243372"
            stroke-miterlimit="10" stroke-linecap="round" />
        <path
            d="M22.1876 139.1L22.0334 136.332C22.0134 135.97 22.1358 135.614 22.3747 135.34C22.6135 135.066 22.9498 134.897 23.3119 134.868L23.588 134.845"
            stroke="#2E3192" stroke-width="0.973489" stroke-miterlimit="10" />
        <path
            d="M19.0233 138.553L21.0285 138.418C21.0944 138.413 21.1592 138.435 21.2089 138.478C21.2586 138.522 21.289 138.583 21.2934 138.649L21.331 139.205L18.7996 139.375L18.7661 138.879C18.7609 138.802 18.7865 138.726 18.8373 138.668C18.8881 138.61 18.9599 138.575 19.0369 138.569L19.0233 138.553Z"
            fill="#2E3192" stroke="#2E3192" stroke-width="0.243372" stroke-miterlimit="10"
            stroke-linecap="round" />
        <path d="M25.8575 139.176L24.3203 163.169L28.3996 162.756L28.5165 138.763L25.8575 139.176Z"
            fill="#2E3192" />
        <path d="M22.3024 163.384L19.2803 163.59" stroke="#2E3192" stroke-width="0.486745"
            stroke-miterlimit="10" stroke-linecap="round" />
        <path d="M19.2151 139.428L17.9864 139.523" stroke="#2E3192" stroke-width="0.486745"
            stroke-miterlimit="10" stroke-linecap="round" />
        <path
            d="M42.2444 124.476L57.4347 170.047C57.6272 170.642 57.937 171.193 58.346 171.666C58.7549 172.14 59.2546 172.526 59.8155 172.803C60.3764 173.08 60.9872 173.242 61.6117 173.279C62.2362 173.316 62.8619 173.228 63.4516 173.019L63.566 172.977V173.317L57.4969 175.376C57.4969 175.376 56.6959 175.764 56.0741 175.322C55.4523 174.879 55.1438 174.61 53.9922 170.801C52.8405 166.991 44.7268 137.477 44.7268 137.477L41.0928 124.844C41.4841 124.746 41.8687 124.623 42.2444 124.476Z"
            fill="#2E3192" />
        <path d="M20.347 130.456L27.5728 131.076L27.7046 128.86L19.9043 129.7L20.347 130.456Z"
            fill="#2E3192" />
        <path
            d="M37.8867 125.363L39.0981 127.624L39.4513 160.214L40.3815 125.037L39.9089 124.92L37.8867 125.363Z"
            fill="#2E3192" />
        <path
            d="M46.4551 109.189C46.7489 109.991 46.9427 110.826 47.0321 111.676L46.3655 111.9C46.3192 111.03 46.1663 110.17 45.9103 109.338C45.6915 108.734 46.4551 109.189 46.4551 109.189Z"
            fill="#2E3192" />
        <path
            d="M28.8906 111.927C28.8975 112.778 29.0094 113.625 29.2239 114.449L29.9229 114.421C29.6634 113.592 29.5063 112.735 29.4553 111.868C29.4428 111.228 28.8906 111.927 28.8906 111.927Z"
            fill="#2E3192" />
        <path
            d="M35.1938 83.2363C35.1938 83.2363 32.7786 84.7284 27.7317 84.8553C27.7317 84.8553 23.0779 85.3526 23.8763 84.2982C24.6748 83.2438 27.7093 83.5522 27.7093 83.5522L32.2313 83.7511L35.1938 83.2363Z"
            fill="#2E3192" />
        <path
            d="M57.083 70.6156L57.3317 69.2777C57.3317 69.2777 57.3765 67.2062 57.6178 66.4402C57.8591 65.6743 59.3763 65.7638 59.3763 65.7638L61.8936 57.7686C61.9347 57.6395 62.0253 57.532 62.1456 57.4695C62.2659 57.4071 62.406 57.3948 62.5353 57.4354C62.6531 57.4692 62.7542 57.5452 62.8194 57.6489C62.8846 57.7526 62.9092 57.8767 62.8885 57.9974L62.0403 63.7893C62.0403 63.7893 62.4756 63.456 62.8785 63.5829C63.2815 63.7097 63.58 64.2468 63.58 64.2468C63.6955 64.1641 63.8275 64.1071 63.9669 64.0797C64.1064 64.0522 64.2501 64.055 64.3884 64.0877C64.6613 64.1934 64.8914 64.3867 65.0425 64.6373C65.3494 64.5416 65.6771 64.5347 65.9877 64.6174C66.5126 64.8113 66.9827 65.453 66.6195 66.6068C66.2564 67.7607 64.9704 72.1003 64.9704 72.1003"
            stroke="#2E3192" stroke-width="0.433203" stroke-linecap="round" stroke-linejoin="round" />
        <path d="M59.4138 65.6599L59.0507 66.8138" stroke="#2E3192" stroke-width="0.433203"
            stroke-linecap="round" stroke-linejoin="round" />
        <path d="M61.9981 64.9009L65.3386 65.9528" stroke="#2E3192" stroke-width="0.433203"
            stroke-linecap="round" stroke-linejoin="round" />
        <path
            d="M56.6072 93.7576L58.4827 89.5847C58.6925 89.1193 59.0606 88.7435 59.5215 88.524C59.9824 88.3045 60.5063 88.2556 60.9999 88.386L61.174 88.4333"
            stroke="#2E3192" stroke-width="0.243372" stroke-miterlimit="10" />
        <path
            d="M58.2892 70.8032C58.2892 70.8032 56.7967 72.5838 57.0803 74.3519L61.2591 75.844L56.3689 74.9214L53.5756 82.648L52.7598 82.2924L55.5655 74.1132L55.2272 72.7852L55.8864 71.1389L56.4062 70.5247L58.2892 70.8032Z"
            fill="#2E3192" />
        <path
            d="M58.5701 65.9563C58.5701 65.9563 58.2169 66.5531 58.289 66.966C58.3612 67.3788 58.4258 70.6689 58.4258 70.6689L56.916 70.4774L57.4384 67.5379L57.8463 66.2423L58.5701 65.9563Z"
            fill="#2E3192" />
        <path d="M36.8564 110.8L37.2594 113.368L37.9683 113.274L37.5131 110.705L36.8564 110.8Z"
            fill="#2E3192" />
        <path
            d="M40.8127 115.834L41.4345 119.338C41.4986 119.696 41.6339 120.037 41.8325 120.341C42.0312 120.646 42.289 120.907 42.5906 121.11C42.8923 121.313 43.2317 121.453 43.5885 121.522C43.9454 121.591 44.3126 121.587 44.6681 121.512L45.0362 121.434C45.4298 121.352 45.8032 121.193 46.1353 120.967C46.4673 120.74 46.7514 120.45 46.9714 120.114C47.1913 119.777 47.3427 119.4 47.417 119.005C47.4912 118.61 47.4869 118.205 47.4042 117.811L46.7276 114.623L40.8127 115.834Z"
            stroke="#2E3192" stroke-width="0.486745" stroke-miterlimit="10" stroke-linecap="round" />
        <path
            d="M29.4082 117.401L29.8087 121.216C29.8433 121.543 29.9431 121.859 30.1022 122.146C30.2613 122.433 30.4765 122.685 30.7349 122.887C30.9934 123.089 31.2898 123.238 31.6067 123.323C31.9236 123.409 32.2544 123.43 32.5796 123.385L33.7238 123.226C34.3927 123.133 34.9976 122.779 35.4057 122.241C35.8137 121.703 35.9916 121.025 35.9002 120.356L35.3878 116.625L29.4082 117.401Z"
            stroke="#2E3192" stroke-width="0.486745" stroke-miterlimit="10" stroke-linecap="round" />
        <path
            d="M20.833 85.9001C20.833 85.9001 19.3929 87.2082 19.3929 89.046C19.3929 90.6227 20.7087 115.809 21.0843 122.971C21.1143 123.513 21.3206 124.03 21.6717 124.443C22.0229 124.857 22.4997 125.144 23.0294 125.262L19.1118 125.913L17.9378 103.263L17.587 95.5242V91.0479L18.3507 88.8097L19.5446 86.8501L20.833 85.9001Z"
            fill="#2E3192" />
        <path
            d="M46.3242 92.2542C46.3242 92.2542 47.9833 96.335 49.6423 105.25L48.8961 98.2624L47.5778 93.612L47.0356 92.3536L46.3242 92.2542Z"
            fill="#2E3192" />
        <path d="M42.9434 44.7256H95.7872" stroke="#2E3192" stroke-width="0.486745"
            stroke-miterlimit="10" stroke-linecap="round" />
        <path
            d="M49.5697 41.5029C49.6438 40.7626 49.1927 40.1114 48.5621 40.0483C47.9316 39.9853 47.3604 40.5343 47.2864 41.2746C47.2123 42.0149 47.6634 42.6661 48.294 42.7291C48.9245 42.7922 49.4957 42.2432 49.5697 41.5029Z"
            stroke="#2E3192" stroke-width="0.450039" stroke-miterlimit="10" stroke-linecap="round" />
        <path
            d="M53.8042 41.4777C53.8782 40.7375 53.4271 40.0862 52.7966 40.0232C52.166 39.9601 51.5948 40.5092 51.5208 41.2494C51.4467 41.9897 51.8979 42.6409 52.5284 42.704C53.159 42.767 53.7301 42.218 53.8042 41.4777Z"
            stroke="#2E3192" stroke-width="0.450039" stroke-miterlimit="10" stroke-linecap="round" />
        <path
            d="M57.3014 41.8556C57.374 41.1189 56.9242 40.4715 56.2967 40.4097C55.6692 40.3478 55.1016 40.8949 55.029 41.6316C54.9563 42.3684 55.4061 43.0157 56.0336 43.0776C56.6611 43.1394 57.2287 42.5923 57.3014 41.8556Z"
            stroke="#2E3192" stroke-width="0.447805" stroke-miterlimit="10" stroke-linecap="round" />
        <path d="M98.6977 56.2337H89.1611L90.6958 46.6992H100.235L98.6977 56.2337Z" stroke="#2E3192"
            stroke-width="0.425902" stroke-miterlimit="10" stroke-linecap="round" />
        <path d="M90.3818 56.3206L90.0908 57.9842L93.7572 57.9246L93.9412 56.3206H90.3818Z"
            fill="#2E3192" />
        <path d="M54.8232 52.9844H65.2751" stroke="#362E83" stroke-width="0.501347"
            stroke-miterlimit="10" stroke-linecap="round" />
        <path d="M69.3643 52.9844H81.3259" stroke="#362E83" stroke-width="0.501347"
            stroke-miterlimit="10" stroke-linecap="round" />
        <path d="M77.082 62.1035H79.9077" stroke="#362E83" stroke-width="0.501347"
            stroke-miterlimit="10" stroke-linecap="round" />
        <path d="M62.41 62.1035H73.6479" stroke="#2E3192" stroke-width="0.433203"
            stroke-linecap="round" stroke-linejoin="round" />
        <path d="M54.4824 62.1035H60.4595" stroke="#2E3192" stroke-width="0.433203"
            stroke-linecap="round" stroke-linejoin="round" />
        <path d="M29.54 118.651L35.5545 117.84" stroke="#2E3192" stroke-width="0.486745"
            stroke-miterlimit="10" stroke-linecap="round" />
        <path d="M41.0039 116.905L46.9561 115.744" stroke="#2E3192" stroke-width="0.486745"
            stroke-miterlimit="10" stroke-linecap="round" />
        <path
            d="M287.191 98.4752C287.272 95.1469 284.797 92.3877 281.665 92.3122C278.532 92.2368 275.928 94.8737 275.847 98.2019C275.767 101.53 278.242 104.289 281.374 104.365C284.507 104.44 287.111 101.803 287.191 98.4752Z"
            stroke="#2E3192" stroke-width="0.472142" stroke-miterlimit="10" stroke-linecap="round" />
        <path
            d="M67.1855 74.5222L66.6532 77.8223H81.9231C83.913 77.8223 85.587 76.9295 85.9028 75.7159L86.2088 74.5222H67.1855Z"
            fill="#2E3192" />
        <path
            d="M301.569 27.5428C301.62 27.0565 301.348 26.6295 300.961 26.589C300.575 26.5486 300.22 26.9101 300.169 27.3964C300.118 27.8827 300.391 28.3096 300.777 28.3501C301.164 28.3905 301.519 28.029 301.569 27.5428Z"
            fill="#2E3192" />
        <path
            d="M301.147 31.5982C301.198 31.1119 300.925 30.6849 300.539 30.6445C300.152 30.604 299.797 30.9655 299.747 31.4518C299.696 31.9381 299.968 32.365 300.355 32.4055C300.741 32.4459 301.096 32.0845 301.147 31.5982Z"
            fill="#2E3192" />
        <path
            d="M300.722 35.6533C300.773 35.167 300.5 34.7401 300.114 34.6996C299.727 34.6592 299.372 35.0206 299.322 35.5069C299.271 35.9932 299.543 36.4202 299.93 36.4606C300.316 36.5011 300.671 36.1396 300.722 35.6533Z"
            fill="#2E3192" />
        <path
            d="M300.297 39.7088C300.348 39.2225 300.076 38.7955 299.689 38.755C299.303 38.7146 298.948 39.0761 298.897 39.5624C298.846 40.0487 299.118 40.4756 299.505 40.5161C299.892 40.5565 300.246 40.1951 300.297 39.7088Z"
            fill="#2E3192" />
        <path
            d="M286.279 154.688C286.33 154.201 286.058 153.774 285.671 153.734C285.284 153.693 284.93 154.055 284.879 154.541C284.828 155.027 285.1 155.454 285.487 155.495C285.874 155.535 286.228 155.174 286.279 154.688Z"
            fill="#2E3192" />
        <path
            d="M285.854 158.736C285.905 158.249 285.633 157.822 285.246 157.782C284.86 157.741 284.505 158.103 284.454 158.589C284.403 159.075 284.676 159.502 285.062 159.543C285.449 159.583 285.803 159.222 285.854 158.736Z"
            fill="#2E3192" />
        <path
            d="M285.432 162.798C285.482 162.312 285.21 161.885 284.824 161.844C284.437 161.804 284.082 162.165 284.031 162.652C283.981 163.138 284.253 163.565 284.639 163.605C285.026 163.646 285.381 163.284 285.432 162.798Z"
            fill="#2E3192" />
        <path
            d="M285.005 166.85C285.056 166.364 284.784 165.937 284.397 165.896C284.01 165.856 283.656 166.217 283.605 166.703C283.554 167.19 283.826 167.617 284.213 167.657C284.6 167.698 284.954 167.336 285.005 166.85Z"
            fill="#2E3192" />
        <path
            d="M240.872 75.8959C240.944 75.2296 240.54 74.6393 239.969 74.5775C239.398 74.5157 238.877 75.0058 238.804 75.6721C238.732 76.3385 239.137 76.9288 239.707 76.9906C240.278 77.0524 240.8 76.5623 240.872 75.8959Z"
            fill="#60CDC8" />
        <path
            d="M244.267 48.9188H117.236C115.434 48.9188 113.706 48.2032 112.432 46.9296C111.158 45.6559 110.443 43.9285 110.443 42.1272C110.443 40.326 111.158 38.5985 112.432 37.3249C113.706 36.0512 115.434 35.3357 117.236 35.3357H244.267C246.069 35.3357 247.797 36.0512 249.071 37.3249C250.345 38.5985 251.06 40.326 251.06 42.1272C251.06 43.9285 250.345 45.6559 249.071 46.9296C247.797 48.2032 246.069 48.9188 244.267 48.9188ZM117.236 35.8331C115.566 35.8331 113.965 36.4962 112.784 37.6766C111.603 38.857 110.94 40.4579 110.94 42.1272C110.94 43.7966 111.603 45.3975 112.784 46.5779C113.965 47.7583 115.566 48.4214 117.236 48.4214H244.267C245.937 48.4214 247.538 47.7583 248.719 46.5779C249.899 45.3975 250.563 43.7966 250.563 42.1272C250.563 40.4579 249.899 38.857 248.719 37.6766C247.538 36.4962 245.937 35.8331 244.267 35.8331H117.236Z"
            fill="#2E3192" />
        <path
            d="M282.914 95.3411L280.474 95.1208C279.587 95.0407 278.803 95.6944 278.723 96.5808L278.453 99.5776C278.373 100.464 279.026 101.247 279.913 101.328L282.353 101.548C283.24 101.628 284.023 100.974 284.103 100.088L284.374 97.0909C284.454 96.2045 283.8 95.4211 282.914 95.3411Z"
            stroke="#2E3192" stroke-width="0.486745" stroke-miterlimit="10" stroke-linecap="round" />
        <path
            d="M292.086 95.0544L291.305 101.441C291.295 101.535 291.306 101.63 291.335 101.72C291.364 101.81 291.412 101.892 291.475 101.963C291.539 102.033 291.616 102.089 291.702 102.128C291.789 102.166 291.882 102.186 291.977 102.187H292.027C292.193 102.187 292.353 102.126 292.478 102.015C292.602 101.905 292.681 101.752 292.701 101.587L293.432 95.2011C293.441 95.1069 293.431 95.0118 293.401 94.9218C293.372 94.8319 293.324 94.7491 293.26 94.6789C293.197 94.6086 293.119 94.5524 293.033 94.5139C292.946 94.4753 292.853 94.4553 292.758 94.4551C292.592 94.4552 292.432 94.5163 292.308 94.6269C292.184 94.7374 292.105 94.8895 292.086 95.0544Z"
            fill="#2E3192" />
        <path d="M84.204 37.9722L85.4154 27.8533L83.5001 27.4131L82.2365 37.9722H84.204Z"
            fill="#2E3192" />
        <path d="M77.8209 74.8293L66.4785 169.516L68.4485 169.506L79.7884 74.8293H77.8209Z"
            fill="#2E3192" />
        <path
            d="M67.2148 178.857L71.0852 181.095C71.2022 181.164 71.3386 181.193 71.4734 181.176C71.6082 181.16 71.734 181.1 71.8314 181.006L71.8637 180.976"
            stroke="#2E3192" stroke-width="0.243372" stroke-miterlimit="10" stroke-linecap="round" />
        <path d="M68.6819 178.933L68.3212 179.502" stroke="#2E3192" stroke-width="0.243372"
            stroke-miterlimit="10" stroke-linecap="round" />
        <path d="M70.0736 179.829L69.7453 180.331" stroke="#2E3192" stroke-width="0.243372"
            stroke-miterlimit="10" stroke-linecap="round" />
        <path
            d="M132.265 37.1104H117.938C115.163 37.1104 112.913 39.3594 112.913 42.1338C112.913 44.9081 115.163 47.1572 117.938 47.1572H132.265C135.04 47.1572 137.289 44.9081 137.289 42.1338C137.289 39.3594 135.04 37.1104 132.265 37.1104Z"
            fill="#B7DEFB" />
        <path
            d="M243.846 37.1104H229.519C226.744 37.1104 224.494 39.3594 224.494 42.1338C224.494 44.9081 226.744 47.1572 229.519 47.1572H243.846C246.621 47.1572 248.87 44.9081 248.87 42.1338C248.87 39.3594 246.621 37.1104 243.846 37.1104Z"
            fill="#60CDC8" />
        <path
            d="M202.464 37.1104H158.664C155.889 37.1104 153.64 39.3594 153.64 42.1338C153.64 44.9081 155.889 47.1572 158.664 47.1572H202.464C205.239 47.1572 207.488 44.9081 207.488 42.1338C207.488 39.3594 205.239 37.1104 202.464 37.1104Z"
            fill="#B7DEFB" />
        <path d="M158.932 42.1306H172.837" stroke="#362E83" stroke-width="0.501347"
            stroke-miterlimit="10" stroke-linecap="round" />
        <path d="M229.728 42.1306H233.879" stroke="#362E83" stroke-width="0.501347"
            stroke-miterlimit="10" stroke-linecap="round" />
        <path d="M236.684 42.1306H244.698" stroke="#362E83" stroke-width="0.501347"
            stroke-miterlimit="10" stroke-linecap="round" />
        <path d="M118.027 42.1306H131.932" stroke="white" stroke-width="0.501347"
            stroke-miterlimit="10" stroke-linecap="round" />
        <path d="M177.637 42.1306H202.197" stroke="#362E83" stroke-width="0.501347"
            stroke-miterlimit="10" stroke-linecap="round" />
        <path d="M150.979 94.354H160.568" stroke="#362E83" stroke-width="0.501347"
            stroke-miterlimit="10" stroke-linecap="round" />
        <path d="M163.76 94.354H170.384" stroke="#362E83" stroke-width="0.501347"
            stroke-miterlimit="10" stroke-linecap="round" />
        <path d="M173.453 94.354H179.574" stroke="#362E83" stroke-width="0.501347"
            stroke-miterlimit="10" stroke-linecap="round" />
        <path d="M238.45 74.5671L235.415 71.9634L210.071 72.1971" stroke="#362E83"
            stroke-width="0.486745" stroke-miterlimit="10" stroke-linecap="round" />
        <path d="M210.706 69.4478H218.581" stroke="#362E83" stroke-width="0.501347"
            stroke-miterlimit="10" stroke-linecap="round" />
        <path d="M225.718 69.4478H235.13" stroke="#362E83" stroke-width="0.501347"
            stroke-miterlimit="10" stroke-linecap="round" />
        <path
            d="M305.211 121.087C304.25 120.985 303.319 120.693 302.472 120.226C301.626 119.759 300.881 119.128 300.283 118.369C299.684 117.611 299.243 116.74 298.986 115.808C298.729 114.877 298.661 113.903 298.786 112.945L305.343 62.6934C305.544 61.1411 306.344 59.729 307.572 58.7591C308.801 57.7891 310.36 57.3384 311.917 57.5033C313.472 57.667 314.902 58.432 315.9 59.6349C316.899 60.8379 317.388 62.3835 317.262 63.9418L313.193 114.457C313.116 115.421 312.847 116.359 312.402 117.217C311.956 118.075 311.344 118.836 310.6 119.454C309.856 120.072 308.996 120.534 308.071 120.815C307.145 121.095 306.173 121.188 305.211 121.087Z"
            stroke="#2E3192" stroke-width="0.730117" stroke-miterlimit="10" stroke-linecap="round" />
        <path d="M310.06 75.104L303.451 137.752" stroke="#2E3192" stroke-width="0.486745"
            stroke-miterlimit="10" stroke-linecap="round" />
        <path
            d="M318.905 129.445C318.227 129.288 317.589 128.994 317.029 128.581C316.47 128.168 316.001 127.645 315.651 127.044C315.301 126.443 315.079 125.776 314.997 125.086C314.915 124.395 314.975 123.695 315.174 123.029L318.233 112.801C318.561 111.702 319.296 110.77 320.288 110.195C321.281 109.62 322.455 109.445 323.571 109.707C324.697 109.969 325.679 110.654 326.313 111.621C326.948 112.587 327.186 113.76 326.979 114.897L325.064 125.399C324.94 126.077 324.68 126.722 324.3 127.296C323.919 127.871 323.426 128.362 322.851 128.74C322.275 129.118 321.628 129.376 320.95 129.497C320.272 129.618 319.576 129.6 318.905 129.445Z"
            stroke="#2E3192" stroke-width="0.486745" stroke-miterlimit="10" stroke-linecap="round" />
        <path d="M321.745 117.283L316.967 137.75" stroke="#2E3192" stroke-width="0.486745"
            stroke-miterlimit="10" stroke-linecap="round" />
        <path d="M320.401 147.972L318.167 184.516H272.303" stroke="#2E3192" stroke-width="0.730117"
            stroke-miterlimit="10" stroke-linecap="round" />
        <path d="M289.503 137.881H321.018" stroke="#2E3192" stroke-width="0.730117"
            stroke-miterlimit="10" stroke-linecap="round" />
        <path d="M289.611 137.881H325.851L323.961 147.928H288.439" stroke="#2E3192"
            stroke-width="0.730117" stroke-miterlimit="10" stroke-linecap="round" />
        <path
            d="M294.229 137.881L293.105 147.928L291.66 147.983L287.936 184.527H277.912L281.581 182.04L283.678 179.523L284.772 177.377L285.959 167.582L287.212 158.261L288.379 148.082L289.737 137.973L294.229 137.881Z"
            fill="#2E3192" />
        <path d="M320.336 149.014L291.171 149.804L291.348 147.977L320.06 147.922L320.336 149.014Z"
            fill="#2E3192" />
        <path d="M297.6 137.752L294.229 99.3455" stroke="#2E3192" stroke-width="0.486745"
            stroke-miterlimit="10" stroke-linecap="round" />
        <path d="M310.067 137.754C310.067 137.754 318.35 97.6441 323.499 82.2207" stroke="#2E3192"
            stroke-width="0.486745" stroke-miterlimit="10" stroke-linecap="round" />
        <path
            d="M330.285 82.9848C330.285 82.9848 328.608 85.3275 326.949 85.6383C325.29 85.9492 324.474 85.1932 324.27 84.1114C324.066 83.0296 324.551 82.0299 326.213 81.7191C327.874 81.4082 330.285 82.9848 330.285 82.9848Z"
            fill="#60CDC8" />
        <path
            d="M326.345 72.8813C326.345 72.8813 327.641 75.4552 327.144 77.0692C326.646 78.6831 325.597 79.0586 324.545 78.7254C323.492 78.3922 322.833 77.5069 323.331 75.8929C323.828 74.2789 326.345 72.8813 326.345 72.8813Z"
            fill="#F6F9FC" />
        <path
            d="M327.653 88.9048C327.653 88.9048 326.161 90.668 324.813 90.8072C323.465 90.9465 322.868 90.29 322.776 89.4121C322.684 88.5343 323.136 87.7658 324.485 87.6266C325.833 87.4873 327.653 88.9048 327.653 88.9048Z"
            fill="#60CDC8" />
        <path
            d="M326.039 94.4156C326.039 94.4156 324.507 96.226 323.121 96.3703C321.736 96.5145 321.131 95.8381 321.027 94.9354C320.922 94.0326 321.398 93.2468 322.783 93.1026C324.168 92.9583 326.039 94.4156 326.039 94.4156Z"
            fill="#F6F9FC" />
        <path
            d="M316.407 79.1144C316.407 79.1144 316.797 81.9693 318.12 83.0187C319.444 84.0681 320.516 83.7647 321.2 82.9143C321.884 82.0638 321.921 80.9397 320.598 79.8928C319.275 78.8458 316.407 79.1144 316.407 79.1144Z"
            fill="#60CDC8" />
        <path
            d="M315.977 85.5731C315.977 85.5731 316.474 87.8286 317.601 88.5797C318.728 89.3307 319.566 89.0298 320.056 88.2937C320.546 87.5576 320.501 86.6723 319.377 85.9188C318.253 85.1653 315.977 85.5731 315.977 85.5731Z"
            fill="#F6F9FC" />
        <path
            d="M314.829 91.2091C314.829 91.2091 315.341 93.5244 316.5 94.2978C317.66 95.0712 318.518 94.7603 319.02 94.0043C319.523 93.2483 319.48 92.3357 318.324 91.5647C317.167 90.7938 314.829 91.2091 314.829 91.2091Z"
            fill="#60CDC8" />
        <path
            d="M290.044 133.32C290.044 133.32 293.527 132.41 295.469 134.066C297.412 135.723 299.151 137.391 299.151 137.391C299.151 137.391 300.34 136.021 301.986 136.016C303.633 136.011 305.444 137.391 305.444 137.391C306.207 136.901 307.096 136.642 308.003 136.645C309.523 136.645 309.789 137.889 309.789 137.889C309.789 137.889 311.242 135.899 314.97 135.899C318.699 135.899 319.355 137.889 319.355 137.889L314.97 138.117L306.762 138.207L294.236 138.05H289.487L289.915 133.415L290.044 133.32Z"
            fill="#2E3192" />
        <path
            d="M303.103 79.7847L301.742 114.628C301.709 115.469 301.847 116.308 302.146 117.095C302.445 117.882 302.9 118.6 303.484 119.207C304.068 119.814 304.768 120.296 305.543 120.626C306.317 120.956 307.151 121.126 307.993 121.126L305.754 120.999L303.436 120.584L299.623 117.749L298.707 113.892L299.702 105.735L303.103 79.7847Z"
            fill="#2E3192" />
        <path
            d="M292.502 112.437C292.502 112.437 293.377 113.38 295.444 113.183C297.511 112.987 300.436 109.744 298.22 100.46L295.235 89.8616"
            stroke="#2E3192" stroke-width="0.486745" stroke-miterlimit="10" stroke-linecap="round" />
        <path d="M289.484 156.672H319.869" stroke="#2E3192" stroke-width="0.730117"
            stroke-miterlimit="10" stroke-linecap="round" />
        <path d="M287.458 160.728H319.356" stroke="#2E3192" stroke-width="0.486745"
            stroke-miterlimit="10" stroke-linecap="round" />
        <path d="M286.368 178.716H318.522" stroke="#2E3192" stroke-width="0.730117"
            stroke-miterlimit="10" stroke-linecap="round" />
        <path d="M296.34 93.9438L294.23 113.15L292.502 112.747L295.158 90.4722L296.34 93.9438Z"
            fill="#2E3192" />
        <path d="M320.747 121.533L325.866 120.71L325.731 121.801L320.478 122.709L320.747 121.533Z"
            fill="#2E3192" />
        <path d="M76.0057 161.617H74.4834" stroke="#2E3192" stroke-width="0.730117"
            stroke-miterlimit="10" stroke-linecap="round" />
        <path d="M79.0516 135.958H77.5293" stroke="#2E3192" stroke-width="0.730117"
            stroke-miterlimit="10" stroke-linecap="round" />
        <path d="M101.331 161.617L101.14 163.139" stroke="#2E3192" stroke-width="0.730117"
            stroke-miterlimit="10" stroke-linecap="round" />
        <path d="M126.921 161.62L126.72 163.142" stroke="#2E3192" stroke-width="0.730117"
            stroke-miterlimit="10" stroke-linecap="round" />
        <path d="M152.511 161.617L152.312 163.139" stroke="#2E3192" stroke-width="0.730117"
            stroke-miterlimit="10" stroke-linecap="round" />
        <path d="M178.105 161.617L177.911 163.139" stroke="#2E3192" stroke-width="0.730117"
            stroke-miterlimit="10" stroke-linecap="round" />
        <path d="M203.693 161.617L203.489 163.139" stroke="#2E3192" stroke-width="0.730117"
            stroke-miterlimit="10" stroke-linecap="round" />
        <path d="M229.287 161.617L229.096 163.139" stroke="#2E3192" stroke-width="0.730117"
            stroke-miterlimit="10" stroke-linecap="round" />
        <path d="M254.876 161.617L254.712 163.139" stroke="#2E3192" stroke-width="0.730117"
            stroke-miterlimit="10" stroke-linecap="round" />
        <path d="M82.0945 110.297H80.5723" stroke="#2E3192" stroke-width="0.730117"
            stroke-miterlimit="10" stroke-linecap="round" />
        <path d="M85.1395 84.6316H83.6172" stroke="#2E3192" stroke-width="0.730117"
            stroke-miterlimit="10" stroke-linecap="round" />
    </g>
    <defs>
        <clipPath id="clip0_690_124565">
            <rect width="390" height="184.128" fill="white" transform="translate(-23 0.833496)" />
        </clipPath>
    </defs>
</svg>