<svg width="215" height="171" viewBox="0 0 215 171" fill="none" xmlns="http://www.w3.org/2000/svg">
    <rect width="215" height="171" rx="40" fill="#65AFFF" />
    <circle cx="39.4766" cy="43.4766" r="17.4766" fill="#C9E3FB" />
    <path d="M31.9219 43.4604L36.7622 48.452L46.443 38.4688" stroke="#362E83" stroke-width="2.49665"
        stroke-linecap="round" />
    <path
        d="M23.28 105V83.752H29.84V92.008H36.176V83.752H42.736V105H36.176V96.424H29.84V105H23.28ZM52.2575 105.384C46.9455 105.384 43.8735 102.44 43.8735 97.544C43.8735 92.648 47.0415 89.48 52.1615 89.48C57.3135 89.48 60.2575 92.52 60.2575 97.736V98.728H49.6015C49.7615 100.584 50.8815 101.448 52.6095 101.448C54.2095 101.448 55.2015 100.68 55.5535 99.496L60.1615 100.552C59.1375 103.784 56.8335 105.384 52.2575 105.384ZM49.5695 95.912H54.5295C54.4335 94.12 53.6975 93.224 52.1615 93.224C50.6895 93.224 49.7295 94.184 49.5695 95.912ZM61.279 105V83.624H67.327V105H61.279ZM69.0453 105V83.624H75.0933V105H69.0453ZM84.6872 105.384C79.2472 105.384 76.0792 102.344 76.0792 97.448C76.0792 92.616 79.3432 89.512 84.8152 89.512C90.2552 89.512 93.4552 92.584 93.4552 97.448C93.4552 102.28 90.1912 105.384 84.6872 105.384ZM84.7512 101.448C86.4152 101.448 87.2792 100.264 87.2792 97.608V97.32C87.2792 94.632 86.4152 93.448 84.7512 93.448C83.1192 93.448 82.2552 94.632 82.2552 97.32V97.608C82.2552 100.296 83.0872 101.448 84.7512 101.448ZM100.596 105V83.752H110.164C116.02 83.752 118.484 85.512 118.484 89.288C118.484 91.368 117.396 92.808 115.38 93.64C117.94 94.504 119.348 96.232 119.348 98.792C119.348 103.144 116.724 105 109.972 105H100.596ZM106.964 92.424H109.012C111.124 92.424 112.02 91.656 112.02 90.12C112.084 88.552 111.316 87.752 109.556 87.752H106.964V92.424ZM106.964 101H109.428C111.572 101 112.628 100.232 112.628 98.44C112.66 96.616 111.7 95.752 109.556 95.752H106.964V101ZM128.386 105.384C123.074 105.384 120.002 102.44 120.002 97.544C120.002 92.648 123.17 89.48 128.29 89.48C133.442 89.48 136.386 92.52 136.386 97.736V98.728H125.73C125.89 100.584 127.01 101.448 128.738 101.448C130.338 101.448 131.33 100.68 131.682 99.496L136.29 100.552C135.266 103.784 132.962 105.384 128.386 105.384ZM125.698 95.912H130.658C130.562 94.12 129.826 93.224 128.29 93.224C126.818 93.224 125.858 94.184 125.698 95.912ZM141.896 105C138.536 104.744 137.928 103.176 137.896 100.232V93.608H136.072V89.896H137.896V86.856L143.848 84.264V89.896H146.216V93.608H143.752V100.264C143.752 100.808 144.04 101.096 144.616 101.096H146.152V105H141.896ZM152.537 105C149.177 104.744 148.569 103.176 148.537 100.232V93.608H146.713V89.896H148.537V86.856L154.489 84.264V89.896H156.857V93.608H154.393V100.264C154.393 100.808 154.681 101.096 155.257 101.096H156.793V105H152.537ZM157.939 88.296V83.784H164.051V88.296H157.939ZM158.003 105V89.896H164.019V105H158.003ZM173.451 105.384C168.139 105.384 165.067 102.44 165.067 97.544C165.067 92.648 168.235 89.48 173.355 89.48C178.507 89.48 181.451 92.52 181.451 97.736V98.728H170.795C170.955 100.584 172.075 101.448 173.803 101.448C175.403 101.448 176.395 100.68 176.747 99.496L181.355 100.552C180.331 103.784 178.027 105.384 173.451 105.384ZM170.763 95.912H175.723C175.627 94.12 174.891 93.224 173.355 93.224C171.883 93.224 170.923 94.184 170.763 95.912Z"
        fill="white" />
    <path
        d="M25.1366 125.971V138H23.3216V125.971H25.1366ZM29.0643 132.643V138H27.308V128.978H28.9938V130.446H29.1054C29.3129 129.969 29.6379 129.585 30.0804 129.295C30.5268 129.005 31.0888 128.86 31.7662 128.86C32.381 128.86 32.9194 128.99 33.3815 129.248C33.8436 129.503 34.2019 129.882 34.4564 130.388C34.7109 130.893 34.8382 131.517 34.8382 132.261V138H33.0819V132.473C33.0819 131.819 32.9116 131.308 32.5709 130.94C32.2302 130.568 31.7623 130.382 31.1671 130.382C30.7598 130.382 30.3976 130.47 30.0804 130.646C29.7672 130.822 29.5185 131.081 29.3345 131.421C29.1543 131.758 29.0643 132.165 29.0643 132.643ZM44.2578 128.978L40.9861 138H39.1065L35.829 128.978H37.7145L39.9994 135.921H40.0933L42.3724 128.978H44.2578ZM49.071 138.182C48.2252 138.182 47.487 137.988 46.8566 137.601C46.2261 137.213 45.7366 136.671 45.3881 135.974C45.0396 135.277 44.8654 134.462 44.8654 133.53C44.8654 132.594 45.0396 131.776 45.3881 131.075C45.7366 130.374 46.2261 129.83 46.8566 129.442C47.487 129.054 48.2252 128.86 49.071 128.86C49.9168 128.86 50.6549 129.054 51.2854 129.442C51.9158 129.83 52.4053 130.374 52.7538 131.075C53.1023 131.776 53.2766 132.594 53.2766 133.53C53.2766 134.462 53.1023 135.277 52.7538 135.974C52.4053 136.671 51.9158 137.213 51.2854 137.601C50.6549 137.988 49.9168 138.182 49.071 138.182ZM49.0769 136.708C49.6251 136.708 50.0793 136.563 50.4396 136.273C50.7998 135.983 51.0661 135.598 51.2384 135.116C51.4146 134.634 51.5027 134.104 51.5027 133.524C51.5027 132.949 51.4146 132.42 51.2384 131.938C51.0661 131.453 50.7998 131.063 50.4396 130.769C50.0793 130.476 49.6251 130.329 49.0769 130.329C48.5247 130.329 48.0666 130.476 47.7024 130.769C47.3421 131.063 47.0739 131.453 46.8977 131.938C46.7254 132.42 46.6392 132.949 46.6392 133.524C46.6392 134.104 46.7254 134.634 46.8977 135.116C47.0739 135.598 47.3421 135.983 47.7024 136.273C48.0666 136.563 48.5247 136.708 49.0769 136.708ZM54.9062 138V128.978H56.6624V138H54.9062ZM55.7931 127.586C55.4877 127.586 55.2253 127.484 55.006 127.28C54.7906 127.073 54.683 126.826 54.683 126.54C54.683 126.25 54.7906 126.004 55.006 125.8C55.2253 125.593 55.4877 125.489 55.7931 125.489C56.0985 125.489 56.3589 125.593 56.5743 125.8C56.7936 126.004 56.9032 126.25 56.9032 126.54C56.9032 126.826 56.7936 127.073 56.5743 127.28C56.3589 127.484 56.0985 127.586 55.7931 127.586ZM62.4947 138.182C61.6214 138.182 60.8696 137.984 60.2391 137.589C59.6126 137.189 59.1309 136.639 58.7942 135.938C58.4574 135.237 58.289 134.435 58.289 133.53C58.289 132.614 58.4613 131.805 58.8059 131.104C59.1505 130.399 59.6361 129.849 60.2626 129.454C60.8892 129.058 61.6273 128.86 62.477 128.86C63.1623 128.86 63.7732 128.988 64.3097 129.242C64.8461 129.493 65.2788 129.845 65.6078 130.299C65.9406 130.754 66.1384 131.284 66.201 131.891H64.4917C64.3978 131.468 64.1824 131.104 63.8456 130.799C63.5128 130.493 63.0664 130.341 62.5064 130.341C62.0169 130.341 61.5881 130.47 61.2201 130.728C60.8559 130.983 60.572 131.347 60.3684 131.821C60.1647 132.291 60.0629 132.847 60.0629 133.489C60.0629 134.147 60.1628 134.715 60.3625 135.192C60.5622 135.67 60.8441 136.04 61.2083 136.302C61.5764 136.565 62.0091 136.696 62.5064 136.696C62.8393 136.696 63.1408 136.635 63.411 136.514C63.6851 136.389 63.9142 136.21 64.0982 135.979C64.2862 135.748 64.4173 135.47 64.4917 135.145H66.201C66.1384 135.729 65.9484 136.25 65.6313 136.708C65.3141 137.166 64.8892 137.526 64.3566 137.789C63.828 138.051 63.2073 138.182 62.4947 138.182ZM71.6368 138.182C70.7479 138.182 69.9823 137.992 69.3401 137.612C68.7018 137.229 68.2085 136.69 67.8599 135.997C67.5153 135.3 67.343 134.484 67.343 133.548C67.343 132.624 67.5153 131.809 67.8599 131.104C68.2085 130.399 68.694 129.849 69.3166 129.454C69.9432 129.058 70.6754 128.86 71.5134 128.86C72.0225 128.86 72.5159 128.945 72.9936 129.113C73.4714 129.281 73.9001 129.546 74.28 129.906C74.6598 130.266 74.9594 130.734 75.1787 131.31C75.3979 131.881 75.5076 132.577 75.5076 133.395V134.018H68.3357V132.702H73.7866C73.7866 132.24 73.6926 131.831 73.5046 131.474C73.3167 131.114 73.0524 130.83 72.7117 130.623C72.3749 130.415 71.9794 130.311 71.5252 130.311C71.0318 130.311 70.601 130.433 70.2329 130.675C69.8688 130.914 69.5868 131.228 69.3871 131.615C69.1913 131.999 69.0934 132.416 69.0934 132.866V133.894C69.0934 134.497 69.1992 135.01 69.4106 135.433C69.626 135.856 69.9256 136.179 70.3093 136.402C70.6931 136.622 71.1414 136.731 71.6544 136.731C71.9872 136.731 72.2907 136.684 72.5648 136.59C72.8389 136.492 73.0759 136.348 73.2756 136.156C73.4753 135.964 73.628 135.727 73.7337 135.445L75.396 135.744C75.2629 136.234 75.024 136.663 74.6794 137.031C74.3387 137.395 73.9099 137.679 73.393 137.883C72.8801 138.082 72.2946 138.182 71.6368 138.182ZM81.172 141.383V128.978H82.8872V130.44H83.034C83.1358 130.252 83.2827 130.035 83.4745 129.788C83.6664 129.542 83.9327 129.326 84.2734 129.142C84.6141 128.954 85.0644 128.86 85.6243 128.86C86.3527 128.86 87.0027 129.044 87.5744 129.413C88.1461 129.781 88.5945 130.311 88.9195 131.004C89.2485 131.697 89.4129 132.532 89.4129 133.507C89.4129 134.482 89.2504 135.318 88.9254 136.015C88.6004 136.708 88.154 137.242 87.5862 137.618C87.0184 137.99 86.3703 138.176 85.642 138.176C85.0937 138.176 84.6454 138.084 84.2969 137.9C83.9523 137.716 83.6821 137.501 83.4863 137.254C83.2905 137.007 83.1397 136.788 83.034 136.596H82.9283V141.383H81.172ZM82.893 133.489C82.893 134.123 82.9851 134.679 83.1691 135.157C83.3531 135.635 83.6194 136.009 83.9679 136.279C84.3164 136.545 84.7433 136.678 85.2484 136.678C85.7731 136.678 86.2117 136.539 86.5641 136.261C86.9166 135.979 87.1828 135.598 87.363 135.116C87.547 134.634 87.639 134.092 87.639 133.489C87.639 132.894 87.549 132.359 87.3689 131.885C87.1926 131.412 86.9264 131.038 86.57 130.764C86.2176 130.489 85.7771 130.352 85.2484 130.352C84.7394 130.352 84.3086 130.484 83.9562 130.746C83.6077 131.008 83.3434 131.374 83.1632 131.844C82.9831 132.314 82.893 132.862 82.893 133.489ZM93.6754 138.2C93.1037 138.2 92.5868 138.094 92.1247 137.883C91.6627 137.667 91.2965 137.356 91.0263 136.949C90.7601 136.541 90.6269 136.042 90.6269 135.451C90.6269 134.942 90.7248 134.523 90.9206 134.194C91.1164 133.865 91.3807 133.604 91.7136 133.413C92.0464 133.221 92.4184 133.076 92.8296 132.978C93.2407 132.88 93.6597 132.806 94.0866 132.755C94.627 132.692 95.0655 132.641 95.4023 132.602C95.7391 132.559 95.9838 132.49 96.1365 132.396C96.2892 132.302 96.3656 132.15 96.3656 131.938V131.897C96.3656 131.384 96.2207 130.987 95.9309 130.705C95.6451 130.423 95.2182 130.282 94.6505 130.282C94.0592 130.282 93.5932 130.413 93.2525 130.675C92.9157 130.934 92.6827 131.222 92.5535 131.539L90.903 131.163C91.0988 130.615 91.3846 130.172 91.7606 129.835C92.1404 129.495 92.577 129.248 93.0704 129.095C93.5638 128.939 94.0827 128.86 94.627 128.86C94.9872 128.86 95.369 128.903 95.7723 128.99C96.1796 129.072 96.5594 129.225 96.9119 129.448C97.2682 129.671 97.5599 129.99 97.787 130.405C98.0142 130.816 98.1277 131.351 98.1277 132.009V138H96.4126V136.767H96.3421C96.2285 136.994 96.0582 137.217 95.8311 137.436C95.604 137.655 95.3122 137.837 94.9559 137.982C94.5995 138.127 94.1727 138.2 93.6754 138.2ZM94.0572 136.79C94.5428 136.79 94.9578 136.694 95.3024 136.502C95.651 136.31 95.9153 136.06 96.0954 135.75C96.2794 135.437 96.3715 135.102 96.3715 134.746V133.583C96.3088 133.646 96.1874 133.704 96.0073 133.759C95.8311 133.81 95.6294 133.855 95.4023 133.894C95.1752 133.929 94.9539 133.963 94.7386 133.994C94.5232 134.021 94.3431 134.045 94.1982 134.065C93.8575 134.108 93.5462 134.18 93.2642 134.282C92.9862 134.384 92.763 134.531 92.5946 134.722C92.4302 134.91 92.3479 135.161 92.3479 135.474C92.3479 135.909 92.5085 136.238 92.8296 136.461C93.1507 136.68 93.5599 136.79 94.0572 136.79ZM100.136 138V128.978H101.892V138H100.136ZM101.023 127.586C100.718 127.586 100.455 127.484 100.236 127.28C100.021 127.073 99.9129 126.826 99.9129 126.54C99.9129 126.25 100.021 126.004 100.236 125.8C100.455 125.593 100.718 125.489 101.023 125.489C101.329 125.489 101.589 125.593 101.804 125.8C102.024 126.004 102.133 126.25 102.133 126.54C102.133 126.826 102.024 127.073 101.804 127.28C101.589 127.484 101.329 127.586 101.023 127.586ZM107.302 138.176C106.573 138.176 105.923 137.99 105.352 137.618C104.784 137.242 104.337 136.708 104.012 136.015C103.691 135.318 103.531 134.482 103.531 133.507C103.531 132.532 103.693 131.697 104.018 131.004C104.347 130.311 104.798 129.781 105.369 129.413C105.941 129.044 106.589 128.86 107.313 128.86C107.873 128.86 108.324 128.954 108.664 129.142C109.009 129.326 109.275 129.542 109.463 129.788C109.655 130.035 109.804 130.252 109.91 130.44H110.015V125.971H111.772V138H110.057V136.596H109.91C109.804 136.788 109.651 137.007 109.452 137.254C109.256 137.501 108.986 137.716 108.641 137.9C108.296 138.084 107.85 138.176 107.302 138.176ZM107.689 136.678C108.195 136.678 108.621 136.545 108.97 136.279C109.322 136.009 109.589 135.635 109.769 135.157C109.953 134.679 110.045 134.123 110.045 133.489C110.045 132.862 109.955 132.314 109.775 131.844C109.594 131.374 109.33 131.008 108.982 130.746C108.633 130.484 108.202 130.352 107.689 130.352C107.161 130.352 106.72 130.489 106.368 130.764C106.015 131.038 105.749 131.412 105.569 131.885C105.393 132.359 105.305 132.894 105.305 133.489C105.305 134.092 105.395 134.634 105.575 135.116C105.755 135.598 106.021 135.979 106.374 136.261C106.73 136.539 107.169 136.678 107.689 136.678Z"
        fill="white" fill-opacity="0.8" />
</svg>
    