<svg
    width="233"
    height="136"
    viewBox="0 0 233 136"
    fill="none"
    xmlns="http://www.w3.org/2000/svg"
>
    <rect
        x="0.985463"
        y="0.985463"
        width="231.029"
        height="132.029"
        rx="18.1278"
        fill="white"
        stroke="#362E83"
        stroke-width="1.97093"
    />
    <path
        d="M16.8046 30.3359H15.3174L18.6591 21.05H20.2777L23.6194 30.3359H22.1322L19.5069 22.7367H19.4344L16.8046 30.3359ZM17.054 26.6995H21.8783V27.8784H17.054V26.6995ZM27.0911 30.472C26.5289 30.472 26.0271 30.3284 25.5858 30.0412C25.1475 29.751 24.8029 29.3384 24.552 28.8034C24.3041 28.2653 24.1802 27.62 24.1802 26.8673C24.1802 26.1146 24.3056 25.4708 24.5565 24.9358C24.8104 24.4007 25.1581 23.9912 25.5994 23.707C26.0407 23.4229 26.541 23.2808 27.1002 23.2808C27.5324 23.2808 27.8801 23.3533 28.143 23.4984C28.4091 23.6405 28.6146 23.8068 28.7597 23.9972C28.9078 24.1876 29.0227 24.3554 29.1043 24.5005H29.1859V21.05H30.5416V30.3359H29.2176V29.2523H29.1043C29.0227 29.4004 28.9048 29.5697 28.7506 29.7601C28.5995 29.9505 28.3909 30.1168 28.1249 30.2589C27.8589 30.4009 27.5143 30.472 27.0911 30.472ZM27.3904 29.3158C27.7803 29.3158 28.1098 29.213 28.3788 29.0074C28.6509 28.7989 28.8564 28.5102 28.9955 28.1414C29.1375 27.7726 29.2086 27.3434 29.2086 26.8537C29.2086 26.3701 29.139 25.9469 29 25.5841C28.861 25.2214 28.6569 24.9388 28.3879 24.7363C28.1189 24.5337 27.7864 24.4325 27.3904 24.4325C26.9823 24.4325 26.6422 24.5383 26.3702 24.7499C26.0981 24.9615 25.8926 25.2501 25.7536 25.6159C25.6175 25.9816 25.5495 26.3943 25.5495 26.8537C25.5495 27.3192 25.619 27.7379 25.7581 28.1097C25.8971 28.4815 26.1027 28.7762 26.3747 28.9938C26.6498 29.2084 26.9884 29.3158 27.3904 29.3158ZM34.8283 30.472C34.2661 30.472 33.7643 30.3284 33.323 30.0412C32.8847 29.751 32.5401 29.3384 32.2892 28.8034C32.0413 28.2653 31.9174 27.62 31.9174 26.8673C31.9174 26.1146 32.0429 25.4708 32.2937 24.9358C32.5477 24.4007 32.8953 23.9912 33.3366 23.707C33.7779 23.4229 34.2782 23.2808 34.8374 23.2808C35.2697 23.2808 35.6173 23.3533 35.8803 23.4984C36.1463 23.6405 36.3518 23.8068 36.4969 23.9972C36.645 24.1876 36.7599 24.3554 36.8415 24.5005H36.9231V21.05H38.2788V30.3359H36.9548V29.2523H36.8415C36.7599 29.4004 36.642 29.5697 36.4878 29.7601C36.3367 29.9505 36.1281 30.1168 35.8621 30.2589C35.5961 30.4009 35.2515 30.472 34.8283 30.472ZM35.1276 29.3158C35.5175 29.3158 35.847 29.213 36.116 29.0074C36.3881 28.7989 36.5936 28.5102 36.7327 28.1414C36.8747 27.7726 36.9458 27.3434 36.9458 26.8537C36.9458 26.3701 36.8763 25.9469 36.7372 25.5841C36.5982 25.2214 36.3941 24.9388 36.1251 24.7363C35.8561 24.5337 35.5236 24.4325 35.1276 24.4325C34.7195 24.4325 34.3795 24.5383 34.1074 24.7499C33.8354 24.9615 33.6298 25.2501 33.4908 25.6159C33.3547 25.9816 33.2867 26.3943 33.2867 26.8537C33.2867 27.3192 33.3562 27.7379 33.4953 28.1097C33.6343 28.4815 33.8399 28.7762 34.1119 28.9938C34.387 29.2084 34.7256 29.3158 35.1276 29.3158ZM44.4378 21.05V30.3359H43.0821V21.05H44.4378ZM49.0079 30.4765C48.3218 30.4765 47.7308 30.3299 47.2351 30.0367C46.7424 29.7405 46.3615 29.3248 46.0925 28.7898C45.8265 28.2517 45.6935 27.6215 45.6935 26.8991C45.6935 26.1857 45.8265 25.5569 46.0925 25.0128C46.3615 24.4687 46.7363 24.044 47.2169 23.7387C47.7006 23.4335 48.2658 23.2808 48.9127 23.2808C49.3057 23.2808 49.6865 23.3458 50.0553 23.4758C50.4241 23.6057 50.7551 23.8098 51.0483 24.0879C51.3415 24.366 51.5728 24.7272 51.742 25.1715C51.9113 25.6129 51.9959 26.1494 51.9959 26.7812V27.2618H46.4597V26.2461H50.6674C50.6674 25.8894 50.5949 25.5736 50.4498 25.2985C50.3047 25.0204 50.1007 24.8013 49.8377 24.641C49.5777 24.4808 49.2724 24.4007 48.9218 24.4007C48.5409 24.4007 48.2084 24.4944 47.9243 24.6819C47.6432 24.8662 47.4255 25.1081 47.2714 25.4073C47.1202 25.7035 47.0446 26.0255 47.0446 26.3731V27.1666C47.0446 27.6321 47.1263 28.0281 47.2895 28.3545C47.4557 28.681 47.687 28.9304 47.9832 29.1026C48.2794 29.2719 48.6256 29.3566 49.0215 29.3566C49.2785 29.3566 49.5127 29.3203 49.7243 29.2477C49.9359 29.1722 50.1188 29.0603 50.273 28.9122C50.4271 28.7641 50.545 28.5812 50.6266 28.3636L51.9098 28.5948C51.807 28.9727 51.6226 29.3037 51.3566 29.5878C51.0936 29.8689 50.7626 30.0881 50.3636 30.2453C49.9677 30.3994 49.5158 30.4765 49.0079 30.4765ZM58.4636 25.0718L57.2348 25.2894C57.1834 25.1322 57.1018 24.9826 56.99 24.8405C56.8812 24.6985 56.7331 24.5821 56.5456 24.4914C56.3582 24.4007 56.124 24.3554 55.8428 24.3554C55.459 24.3554 55.1385 24.4415 54.8816 24.6138C54.6247 24.7831 54.4962 25.0023 54.4962 25.2713C54.4962 25.504 54.5824 25.6915 54.7547 25.8335C54.9269 25.9756 55.205 26.092 55.5889 26.1827L56.6953 26.4366C57.3361 26.5847 57.8137 26.8129 58.1281 27.1212C58.4424 27.4295 58.5996 27.8301 58.5996 28.3228C58.5996 28.7399 58.4787 29.1117 58.2369 29.4382C57.9981 29.7616 57.6641 30.0155 57.2348 30.1999C56.8086 30.3843 56.3144 30.4765 55.7522 30.4765C54.9723 30.4765 54.336 30.3102 53.8433 29.9777C53.3506 29.6422 53.0483 29.1661 52.9365 28.5495L54.2468 28.35C54.3284 28.6916 54.4962 28.95 54.7501 29.1253C55.004 29.2976 55.335 29.3838 55.7431 29.3838C56.1874 29.3838 56.5426 29.2916 56.8086 29.1072C57.0746 28.9198 57.2076 28.6916 57.2076 28.4225C57.2076 28.2049 57.126 28.022 56.9628 27.8739C56.8026 27.7258 56.5562 27.6139 56.2237 27.5384L55.0448 27.2799C54.3949 27.1318 53.9143 26.896 53.603 26.5726C53.2947 26.2492 53.1405 25.8396 53.1405 25.3438C53.1405 24.9327 53.2554 24.573 53.4851 24.2647C53.7148 23.9564 54.0322 23.7161 54.4373 23.5438C54.8423 23.3685 55.3063 23.2808 55.8292 23.2808C56.5819 23.2808 57.1744 23.444 57.6066 23.7705C58.0389 24.0939 58.3245 24.5277 58.4636 25.0718ZM65.0537 25.0718L63.8249 25.2894C63.7735 25.1322 63.6919 24.9826 63.5801 24.8405C63.4712 24.6985 63.3231 24.5821 63.1357 24.4914C62.9483 24.4007 62.714 24.3554 62.4329 24.3554C62.049 24.3554 61.7286 24.4415 61.4717 24.6138C61.2147 24.7831 61.0863 25.0023 61.0863 25.2713C61.0863 25.504 61.1724 25.6915 61.3447 25.8335C61.517 25.9756 61.7951 26.092 62.179 26.1827L63.2853 26.4366C63.9262 26.5847 64.4038 26.8129 64.7181 27.1212C65.0325 27.4295 65.1897 27.8301 65.1897 28.3228C65.1897 28.7399 65.0688 29.1117 64.8269 29.4382C64.5881 29.7616 64.2541 30.0155 63.8249 30.1999C63.3987 30.3843 62.9045 30.4765 62.3422 30.4765C61.5624 30.4765 60.9261 30.3102 60.4334 29.9777C59.9406 29.6422 59.6384 29.1661 59.5265 28.5495L60.8369 28.35C60.9185 28.6916 61.0863 28.95 61.3402 29.1253C61.5941 29.2976 61.9251 29.3838 62.3332 29.3838C62.7775 29.3838 63.1327 29.2916 63.3987 29.1072C63.6647 28.9198 63.7977 28.6916 63.7977 28.4225C63.7977 28.2049 63.7161 28.022 63.5529 27.8739C63.3926 27.7258 63.1463 27.6139 62.8138 27.5384L61.6349 27.2799C60.985 27.1318 60.5044 26.896 60.193 26.5726C59.8847 26.2492 59.7306 25.8396 59.7306 25.3438C59.7306 24.9327 59.8454 24.573 60.0752 24.2647C60.3049 23.9564 60.6223 23.7161 61.0273 23.5438C61.4324 23.3685 61.8964 23.2808 62.4193 23.2808C63.172 23.2808 63.7644 23.444 64.1967 23.7705C64.629 24.0939 64.9146 24.5277 65.0537 25.0718ZM69.3585 30.4765C68.7056 30.4765 68.1358 30.3269 67.6491 30.0276C67.1625 29.7284 66.7846 29.3097 66.5156 28.7717C66.2466 28.2336 66.1121 27.6049 66.1121 26.8854C66.1121 26.163 66.2466 25.5313 66.5156 24.9902C66.7846 24.4491 67.1625 24.0289 67.6491 23.7297C68.1358 23.4304 68.7056 23.2808 69.3585 23.2808C70.0114 23.2808 70.5812 23.4304 71.0679 23.7297C71.5546 24.0289 71.9324 24.4491 72.2014 24.9902C72.4705 25.5313 72.605 26.163 72.605 26.8854C72.605 27.6049 72.4705 28.2336 72.2014 28.7717C71.9324 29.3097 71.5546 29.7284 71.0679 30.0276C70.5812 30.3269 70.0114 30.4765 69.3585 30.4765ZM69.363 29.3384C69.7862 29.3384 70.1369 29.2266 70.415 29.0029C70.6931 28.7792 70.8986 28.4815 71.0316 28.1097C71.1676 27.7379 71.2357 27.3283 71.2357 26.8809C71.2357 26.4366 71.1676 26.0285 71.0316 25.6567C70.8986 25.2819 70.6931 24.9811 70.415 24.7544C70.1369 24.5277 69.7862 24.4143 69.363 24.4143C68.9368 24.4143 68.5832 24.5277 68.3021 24.7544C68.024 24.9811 67.8169 25.2819 67.6809 25.6567C67.5479 26.0285 67.4814 26.4366 67.4814 26.8809C67.4814 27.3283 67.5479 27.7379 67.6809 28.1097C67.8169 28.4815 68.024 28.7792 68.3021 29.0029C68.5832 29.2266 68.9368 29.3384 69.363 29.3384ZM75.2186 26.2008V30.3359H73.8629V23.3715H75.1642V24.505H75.2503C75.4105 24.1362 75.6614 23.84 76.003 23.6163C76.3476 23.3926 76.7814 23.2808 77.3043 23.2808C77.7789 23.2808 78.1945 23.3806 78.5512 23.5801C78.9079 23.7765 79.1845 24.0697 79.3809 24.4597C79.5774 24.8496 79.6757 25.3317 79.6757 25.9061V30.3359H78.3199V26.0693C78.3199 25.5645 78.1885 25.17 77.9255 24.8859C77.6625 24.5987 77.3013 24.4551 76.8418 24.4551C76.5274 24.4551 76.2478 24.5232 76.003 24.6592C75.7612 24.7952 75.5692 24.9947 75.4272 25.2577C75.2881 25.5176 75.2186 25.832 75.2186 26.2008Z"
        fill="#1F374E"
    />
    <rect x="15" y="48" width="203" height="34" rx="9.48616" fill="#F8F8F8" />
    <path
        d="M58.9046 63.8666H57.49C57.4356 63.5643 57.3343 63.2983 57.1862 63.0686C57.0381 62.8389 56.8567 62.6439 56.6421 62.4837C56.4275 62.3235 56.1872 62.2026 55.9212 62.121C55.6582 62.0394 55.3786 61.9985 55.0824 61.9985C54.5473 61.9985 54.0682 62.1331 53.645 62.4021C53.2249 62.6711 52.8924 63.0656 52.6475 63.5855C52.4057 64.1054 52.2848 64.7402 52.2848 65.4898C52.2848 66.2455 52.4057 66.8833 52.6475 67.4033C52.8924 67.9232 53.2264 68.3161 53.6496 68.5821C54.0728 68.8481 54.5488 68.9811 55.0778 68.9811C55.371 68.9811 55.6491 68.9418 55.9121 68.8633C56.1781 68.7816 56.4184 68.6622 56.633 68.5051C56.8477 68.3479 57.029 68.1559 57.1771 67.9292C57.3283 67.6995 57.4326 67.4365 57.49 67.1403L58.9046 67.1448C58.8291 67.6012 58.6825 68.0214 58.4648 68.4053C58.2502 68.7862 57.9736 69.1157 57.6351 69.3937C57.2996 69.6688 56.9157 69.8819 56.4834 70.0331C56.0512 70.1842 55.5796 70.2598 55.0688 70.2598C54.2647 70.2598 53.5483 70.0693 52.9196 69.6885C52.2908 69.3046 51.7951 68.7559 51.4324 68.0426C51.0727 67.3292 50.8928 66.4783 50.8928 65.4898C50.8928 64.4984 51.0742 63.6475 51.4369 62.9371C51.7996 62.2237 52.2954 61.6766 52.9241 61.2958C53.5528 60.9119 54.2677 60.7199 55.0688 60.7199C55.5615 60.7199 56.0209 60.791 56.4471 60.933C56.8764 61.0721 57.2618 61.2776 57.6033 61.5497C57.9449 61.8187 58.2275 62.1482 58.4512 62.5381C58.6749 62.925 58.8261 63.3679 58.9046 63.8666ZM61.5727 65.9977V70.1328H60.217V60.8469H61.5545V64.3019H61.6407C61.8039 63.9271 62.0533 63.6293 62.3888 63.4087C62.7243 63.188 63.1627 63.0777 63.7037 63.0777C64.1813 63.0777 64.5985 63.1759 64.9552 63.3724C65.3149 63.5689 65.593 63.8621 65.7894 64.252C65.9889 64.6389 66.0887 65.1226 66.0887 65.7029V70.1328H64.733V65.8662C64.733 65.3553 64.6015 64.9593 64.3385 64.6782C64.0755 64.3941 63.7098 64.252 63.2412 64.252C62.9208 64.252 62.6337 64.32 62.3798 64.4561C62.1289 64.5921 61.9309 64.7916 61.7858 65.0546C61.6437 65.3145 61.5727 65.6289 61.5727 65.9977ZM70.6441 70.2734C69.9579 70.2734 69.3669 70.1268 68.8712 69.8336C68.3785 69.5373 67.9976 69.1217 67.7286 68.5867C67.4626 68.0486 67.3296 67.4184 67.3296 66.6959C67.3296 65.9826 67.4626 65.3538 67.7286 64.8097C67.9976 64.2656 68.3724 63.8409 68.8531 63.5356C69.3367 63.2303 69.902 63.0777 70.5488 63.0777C70.9418 63.0777 71.3227 63.1427 71.6914 63.2726C72.0602 63.4026 72.3912 63.6067 72.6844 63.8848C72.9776 64.1628 73.2089 64.5241 73.3782 64.9684C73.5474 65.4097 73.6321 65.9463 73.6321 66.578V67.0587H68.0959V66.043H72.3036C72.3036 65.6863 72.231 65.3704 72.0859 65.0954C71.9408 64.8173 71.7368 64.5981 71.4738 64.4379C71.2138 64.2777 70.9085 64.1976 70.5579 64.1976C70.177 64.1976 69.8445 64.2913 69.5604 64.4787C69.2793 64.6631 69.0616 64.9049 68.9075 65.2042C68.7563 65.5004 68.6808 65.8223 68.6808 66.17V66.9634C68.6808 67.4289 68.7624 67.8249 68.9256 68.1514C69.0919 68.4778 69.3231 68.7272 69.6193 68.8995C69.9156 69.0688 70.2617 69.1534 70.6577 69.1534C70.9146 69.1534 71.1489 69.1172 71.3605 69.0446C71.572 68.969 71.7549 68.8572 71.9091 68.7091C72.0632 68.561 72.1811 68.3781 72.2627 68.1605L73.5459 68.3917C73.4431 68.7695 73.2588 69.1005 72.9927 69.3847C72.7298 69.6658 72.3988 69.8849 71.9998 70.0421C71.6038 70.1963 71.1519 70.2734 70.6441 70.2734ZM74.8809 70.1328V63.1684H76.1822V64.3019H76.2684C76.4134 63.918 76.6507 63.6188 76.9802 63.4041C77.3097 63.1865 77.7042 63.0777 78.1636 63.0777C78.6291 63.0777 79.0191 63.1865 79.3334 63.4041C79.6508 63.6218 79.8851 63.921 80.0362 64.3019H80.1088C80.275 63.9301 80.5395 63.6339 80.9023 63.4132C81.265 63.1895 81.6972 63.0777 82.199 63.0777C82.8308 63.0777 83.3462 63.2757 83.7452 63.6716C84.1472 64.0676 84.3482 64.6646 84.3482 65.4626V70.1328H82.9925V65.5896C82.9925 65.118 82.864 64.7765 82.6071 64.5649C82.3502 64.3533 82.0433 64.2475 81.6867 64.2475C81.2453 64.2475 80.9023 64.3835 80.6574 64.6556C80.4126 64.9246 80.2901 65.2707 80.2901 65.6939V70.1328H78.939V65.5034C78.939 65.1256 78.8211 64.8218 78.5853 64.5921C78.3495 64.3624 78.0427 64.2475 77.6649 64.2475C77.4079 64.2475 77.1706 64.3155 76.953 64.4515C76.7384 64.5845 76.5646 64.7704 76.4316 65.0092C76.3016 65.248 76.2366 65.5246 76.2366 65.839V70.1328H74.8809ZM85.9099 70.1328V63.1684H87.2656V70.1328H85.9099ZM86.5946 62.0938C86.3588 62.0938 86.1563 62.0152 85.987 61.858C85.8207 61.6978 85.7376 61.5073 85.7376 61.2867C85.7376 61.063 85.8207 60.8726 85.987 60.7154C86.1563 60.5552 86.3588 60.4751 86.5946 60.4751C86.8303 60.4751 87.0313 60.5552 87.1976 60.7154C87.3669 60.8726 87.4515 61.063 87.4515 61.2867C87.4515 61.5073 87.3669 61.6978 87.1976 61.858C87.0313 62.0152 86.8303 62.0938 86.5946 62.0938ZM94.0529 64.8687L92.8242 65.0863C92.7728 64.9291 92.6912 64.7795 92.5793 64.6374C92.4705 64.4954 92.3224 64.379 92.135 64.2883C91.9476 64.1976 91.7133 64.1523 91.4322 64.1523C91.0483 64.1523 90.7279 64.2384 90.4709 64.4107C90.214 64.58 90.0855 64.7991 90.0855 65.0682C90.0855 65.3009 90.1717 65.4883 90.344 65.6304C90.5163 65.7725 90.7944 65.8888 91.1783 65.9795L92.2846 66.2334C92.9254 66.3816 93.403 66.6098 93.7174 66.9181C94.0318 67.2264 94.1889 67.6269 94.1889 68.1197C94.1889 68.5368 94.068 68.9086 93.8262 69.2351C93.5874 69.5585 93.2534 69.8124 92.8242 69.9968C92.398 70.1812 91.9037 70.2734 91.3415 70.2734C90.5616 70.2734 89.9253 70.1071 89.4326 69.7746C88.9399 69.4391 88.6376 68.963 88.5258 68.3464L89.8362 68.1469C89.9178 68.4884 90.0855 68.7469 90.3395 68.9222C90.5934 69.0945 90.9244 69.1806 91.3324 69.1806C91.7768 69.1806 92.132 69.0884 92.398 68.9041C92.664 68.7166 92.797 68.4884 92.797 68.2194C92.797 68.0018 92.7153 67.8189 92.5521 67.6708C92.3919 67.5227 92.1456 67.4108 91.813 67.3352L90.6342 67.0768C89.9843 66.9287 89.5037 66.6929 89.1923 66.3695C88.884 66.046 88.7298 65.6364 88.7298 65.1407C88.7298 64.7296 88.8447 64.3699 89.0744 64.0616C89.3042 63.7533 89.6215 63.513 90.0266 63.3407C90.4316 63.1653 90.8956 63.0777 91.4186 63.0777C92.1712 63.0777 92.7637 63.2409 93.196 63.5674C93.6282 63.8908 93.9139 64.3246 94.0529 64.8687ZM98.6752 63.1684V64.2566H94.871V63.1684H98.6752ZM95.8912 61.4998H97.2469V68.0879C97.2469 68.3509 97.2862 68.5489 97.3648 68.6819C97.4434 68.8119 97.5447 68.901 97.6686 68.9494C97.7955 68.9947 97.9331 69.0174 98.0812 69.0174C98.19 69.0174 98.2852 69.0099 98.3668 68.9947C98.4485 68.9796 98.5119 68.9675 98.5573 68.9585L98.8021 70.0784C98.7235 70.1086 98.6117 70.1389 98.4666 70.1691C98.3215 70.2023 98.1401 70.2205 97.9225 70.2235C97.5658 70.2295 97.2333 70.1661 96.925 70.0331C96.6167 69.9001 96.3673 69.6945 96.1769 69.4164C95.9864 69.1383 95.8912 68.7892 95.8912 68.369V61.4998ZM99.9195 70.1328V63.1684H101.23V64.2747H101.302C101.429 63.8999 101.653 63.6051 101.973 63.3905C102.297 63.1729 102.663 63.0641 103.071 63.0641C103.155 63.0641 103.255 63.0671 103.37 63.0731C103.488 63.0792 103.58 63.0867 103.647 63.0958V64.3926C103.592 64.3775 103.495 64.3608 103.356 64.3427C103.217 64.3215 103.078 64.311 102.939 64.311C102.619 64.311 102.333 64.379 102.082 64.515C101.834 64.648 101.638 64.8339 101.493 65.0727C101.348 65.3085 101.275 65.5775 101.275 65.8798V70.1328H99.9195ZM105.633 72.7445C105.431 72.7445 105.246 72.7279 105.08 72.6946C104.914 72.6644 104.79 72.6311 104.708 72.5949L105.035 71.484C105.283 71.5505 105.503 71.5792 105.697 71.5701C105.89 71.5611 106.061 71.4885 106.209 71.3525C106.36 71.2165 106.493 70.9943 106.608 70.686L106.776 70.2235L104.228 63.1684H105.679L107.442 68.5731H107.515L109.279 63.1684H110.734L107.864 71.0623C107.731 71.425 107.562 71.7319 107.356 71.9827C107.151 72.2367 106.906 72.4271 106.622 72.554C106.338 72.681 106.008 72.7445 105.633 72.7445Z"
        fill="#1F374E"
        fill-opacity="0.6"
    />
    <path
        d="M200.047 64.2734L204.348 68.5748L208.65 64.2734"
        stroke="#1F374E"
        stroke-width="1.17085"
        stroke-linecap="round"
    />
    <rect
        x="22.6719"
        y="55.2422"
        width="20.6464"
        height="20.6464"
        rx="5.78098"
        fill="#C9E3FB"
    />
    <g clipPath="url(#clip0_537_27582)">
        <path
            fillRule="evenodd"
            clipRule="evenodd"
            d="M30.5008 60.5452C30.5008 60.2398 30.7484 59.9922 31.0538 59.9922H35.8166C36.1221 59.9922 36.3697 60.2398 36.3697 60.5452C36.3697 60.8506 36.1221 61.0982 35.8166 61.0982H35.2786V64.6581L37.8494 67.93C38.6097 68.8976 37.9204 70.3159 36.6898 70.3159H30.1806C28.95 70.3159 28.2607 68.8976 29.021 67.93L31.5918 64.6581V61.0982H31.0538C30.7484 61.0982 30.5008 60.8506 30.5008 60.5452Z"
            fill="#362E83"
        />
    </g>
    <rect x="15" y="92" width="203" height="31" rx="15.5" fill="#60CDC8" />
    <path
        d="M84.7484 106.109H83.3337C83.2793 105.807 83.1781 105.541 83.03 105.311C82.8818 105.081 82.7005 104.886 82.4859 104.726C82.2712 104.566 82.0309 104.445 81.7649 104.363C81.5019 104.282 81.2223 104.241 80.9261 104.241C80.3911 104.241 79.912 104.375 79.4888 104.644C79.0686 104.913 78.7361 105.308 78.4913 105.828C78.2494 106.348 78.1285 106.982 78.1285 107.732C78.1285 108.488 78.2494 109.126 78.4913 109.645C78.7361 110.165 79.0701 110.558 79.4933 110.824C79.9165 111.09 80.3926 111.223 80.9216 111.223C81.2148 111.223 81.4929 111.184 81.7559 111.105C82.0219 111.024 82.2622 110.904 82.4768 110.747C82.6914 110.59 82.8728 110.398 83.0209 110.171C83.172 109.942 83.2763 109.679 83.3337 109.382L84.7484 109.387C84.6728 109.843 84.5262 110.264 84.3086 110.647C84.094 111.028 83.8174 111.358 83.4788 111.636C83.1433 111.911 82.7594 112.124 82.3272 112.275C81.8949 112.426 81.4234 112.502 80.9125 112.502C80.1085 112.502 79.3921 112.312 78.7633 111.931C78.1346 111.547 77.6389 110.998 77.2761 110.285C76.9164 109.571 76.7366 108.72 76.7366 107.732C76.7366 106.741 76.9179 105.89 77.2807 105.179C77.6434 104.466 78.1391 103.919 78.7679 103.538C79.3966 103.154 80.1115 102.962 80.9125 102.962C81.4052 102.962 81.8647 103.033 82.2909 103.175C82.7201 103.314 83.1055 103.52 83.4471 103.792C83.7887 104.061 84.0713 104.39 84.295 104.78C84.5187 105.167 84.6698 105.61 84.7484 106.109ZM86.0607 112.375V105.411H87.3711V106.517H87.4436C87.5706 106.142 87.7943 105.847 88.1147 105.633C88.4381 105.415 88.8039 105.306 89.2119 105.306C89.2966 105.306 89.3963 105.309 89.5112 105.315C89.6291 105.321 89.7213 105.329 89.7878 105.338V106.635C89.7334 106.62 89.6366 106.603 89.4976 106.585C89.3586 106.564 89.2195 106.553 89.0805 106.553C88.76 106.553 88.4744 106.621 88.2235 106.757C87.9756 106.89 87.7792 107.076 87.6341 107.315C87.489 107.551 87.4164 107.82 87.4164 108.122V112.375H86.0607ZM93.4579 112.516C92.7717 112.516 92.1807 112.369 91.685 112.076C91.1923 111.78 90.8114 111.364 90.5424 110.829C90.2764 110.291 90.1434 109.661 90.1434 108.938C90.1434 108.225 90.2764 107.596 90.5424 107.052C90.8114 106.508 91.1863 106.083 91.6669 105.778C92.1505 105.473 92.7158 105.32 93.3626 105.32C93.7556 105.32 94.1365 105.385 94.5053 105.515C94.874 105.645 95.205 105.849 95.4982 106.127C95.7914 106.405 96.0227 106.766 96.192 107.211C96.3612 107.652 96.4459 108.188 96.4459 108.82V109.301H90.9097V108.285H95.1174C95.1174 107.929 95.0448 107.613 94.8997 107.338C94.7546 107.059 94.5506 106.84 94.2876 106.68C94.0277 106.52 93.7224 106.44 93.3717 106.44C92.9908 106.44 92.6583 106.534 92.3742 106.721C92.0931 106.905 91.8754 107.147 91.7213 107.446C91.5701 107.743 91.4946 108.065 91.4946 108.412V109.206C91.4946 109.671 91.5762 110.067 91.7394 110.394C91.9057 110.72 92.1369 110.969 92.4331 111.142C92.7294 111.311 93.0755 111.396 93.4715 111.396C93.7284 111.396 93.9627 111.359 94.1743 111.287C94.3859 111.211 94.5687 111.099 94.7229 110.951C94.8771 110.803 94.9949 110.62 95.0766 110.403L96.3597 110.634C96.2569 111.012 96.0726 111.343 95.8066 111.627C95.5436 111.908 95.2126 112.127 94.8136 112.284C94.4176 112.438 93.9657 112.516 93.4579 112.516ZM99.7215 112.529C99.2801 112.529 98.8811 112.448 98.5245 112.284C98.1678 112.118 97.8851 111.878 97.6766 111.563C97.471 111.249 97.3682 110.864 97.3682 110.407C97.3682 110.014 97.4438 109.691 97.595 109.437C97.7461 109.183 97.9501 108.982 98.2071 108.834C98.464 108.686 98.7512 108.574 99.0686 108.498C99.3859 108.423 99.7094 108.365 100.039 108.326C100.456 108.278 100.795 108.238 101.055 108.208C101.314 108.175 101.503 108.122 101.621 108.049C101.739 107.977 101.798 107.859 101.798 107.696V107.664C101.798 107.268 101.686 106.961 101.463 106.744C101.242 106.526 100.912 106.417 100.474 106.417C100.018 106.417 99.658 106.518 99.395 106.721C99.1351 106.92 98.9552 107.143 98.8555 107.387L97.5814 107.097C97.7325 106.674 97.9532 106.332 98.2433 106.073C98.5365 105.81 98.8736 105.619 99.2545 105.501C99.6353 105.38 100.036 105.32 100.456 105.32C100.734 105.32 101.029 105.353 101.34 105.42C101.655 105.483 101.948 105.601 102.22 105.773C102.495 105.946 102.72 106.192 102.895 106.512C103.071 106.83 103.158 107.242 103.158 107.75V112.375H101.834V111.423H101.78C101.692 111.598 101.561 111.77 101.386 111.94C101.21 112.109 100.985 112.25 100.71 112.361C100.435 112.473 100.105 112.529 99.7215 112.529ZM100.016 111.441C100.391 111.441 100.711 111.367 100.977 111.219C101.246 111.071 101.45 110.877 101.59 110.638C101.732 110.397 101.803 110.138 101.803 109.863V108.965C101.754 109.014 101.661 109.059 101.522 109.101C101.386 109.141 101.23 109.175 101.055 109.206C100.879 109.233 100.708 109.259 100.542 109.283C100.376 109.304 100.237 109.322 100.125 109.337C99.862 109.37 99.6217 109.426 99.4041 109.505C99.1895 109.583 99.0172 109.697 98.8872 109.845C98.7602 109.99 98.6968 110.183 98.6968 110.425C98.6968 110.761 98.8207 111.015 99.0686 111.187C99.3164 111.356 99.6323 111.441 100.016 111.441ZM107.96 105.411V106.499H104.156V105.411H107.96ZM105.176 103.742H106.531V110.33C106.531 110.593 106.571 110.791 106.649 110.924C106.728 111.054 106.829 111.143 106.953 111.192C107.08 111.237 107.218 111.26 107.366 111.26C107.475 111.26 107.57 111.252 107.651 111.237C107.733 111.222 107.796 111.21 107.842 111.201L108.087 112.321C108.008 112.351 107.896 112.381 107.751 112.411C107.606 112.445 107.425 112.463 107.207 112.466C106.85 112.472 106.518 112.408 106.21 112.275C105.901 112.142 105.652 111.937 105.461 111.659C105.271 111.381 105.176 111.031 105.176 110.611V103.742ZM112.131 112.516C111.445 112.516 110.854 112.369 110.358 112.076C109.865 111.78 109.484 111.364 109.215 110.829C108.949 110.291 108.816 109.661 108.816 108.938C108.816 108.225 108.949 107.596 109.215 107.052C109.484 106.508 109.859 106.083 110.34 105.778C110.823 105.473 111.389 105.32 112.036 105.32C112.429 105.32 112.809 105.385 113.178 105.515C113.547 105.645 113.878 105.849 114.171 106.127C114.464 106.405 114.696 106.766 114.865 107.211C115.034 107.652 115.119 108.188 115.119 108.82V109.301H109.583V108.285H113.79C113.79 107.929 113.718 107.613 113.573 107.338C113.428 107.059 113.224 106.84 112.961 106.68C112.701 106.52 112.395 106.44 112.045 106.44C111.664 106.44 111.331 106.534 111.047 106.721C110.766 106.905 110.548 107.147 110.394 107.446C110.243 107.743 110.168 108.065 110.168 108.412V109.206C110.168 109.671 110.249 110.067 110.412 110.394C110.579 110.72 110.81 110.969 111.106 111.142C111.402 111.311 111.748 111.396 112.144 111.396C112.401 111.396 112.636 111.359 112.847 111.287C113.059 111.211 113.242 111.099 113.396 110.951C113.55 110.803 113.668 110.62 113.749 110.403L115.033 110.634C114.93 111.012 114.745 111.343 114.479 111.627C114.217 111.908 113.886 112.127 113.487 112.284C113.091 112.438 112.639 112.516 112.131 112.516ZM120.847 103.089V112.375H119.491V103.089H120.847ZM125.417 112.516C124.731 112.516 124.14 112.369 123.644 112.076C123.152 111.78 122.771 111.364 122.502 110.829C122.236 110.291 122.103 109.661 122.103 108.938C122.103 108.225 122.236 107.596 122.502 107.052C122.771 106.508 123.146 106.083 123.626 105.778C124.11 105.473 124.675 105.32 125.322 105.32C125.715 105.32 126.096 105.385 126.465 105.515C126.833 105.645 127.164 105.849 127.458 106.127C127.751 106.405 127.982 106.766 128.151 107.211C128.321 107.652 128.405 108.188 128.405 108.82V109.301H122.869V108.285H127.077C127.077 107.929 127.004 107.613 126.859 107.338C126.714 107.059 126.51 106.84 126.247 106.68C125.987 106.52 125.682 106.44 125.331 106.44C124.95 106.44 124.618 106.534 124.334 106.721C124.052 106.905 123.835 107.147 123.681 107.446C123.529 107.743 123.454 108.065 123.454 108.412V109.206C123.454 109.671 123.536 110.067 123.699 110.394C123.865 110.72 124.096 110.969 124.392 111.142C124.689 111.311 125.035 111.396 125.431 111.396C125.688 111.396 125.922 111.359 126.134 111.287C126.345 111.211 126.528 111.099 126.682 110.951C126.836 110.803 126.954 110.62 127.036 110.403L128.319 110.634C128.216 111.012 128.032 111.343 127.766 111.627C127.503 111.908 127.172 112.127 126.773 112.284C126.377 112.438 125.925 112.516 125.417 112.516ZM134.873 107.111L133.644 107.328C133.593 107.171 133.511 107.022 133.399 106.88C133.29 106.738 133.142 106.621 132.955 106.53C132.767 106.44 132.533 106.394 132.252 106.394C131.868 106.394 131.548 106.481 131.291 106.653C131.034 106.822 130.905 107.041 130.905 107.31C130.905 107.543 130.992 107.731 131.164 107.873C131.336 108.015 131.614 108.131 131.998 108.222L133.105 108.476C133.745 108.624 134.223 108.852 134.537 109.16C134.852 109.469 135.009 109.869 135.009 110.362C135.009 110.779 134.888 111.151 134.646 111.477C134.407 111.801 134.073 112.055 133.644 112.239C133.218 112.423 132.724 112.516 132.161 112.516C131.382 112.516 130.745 112.349 130.253 112.017C129.76 111.681 129.458 111.205 129.346 110.589L130.656 110.389C130.738 110.731 130.905 110.989 131.159 111.164C131.413 111.337 131.744 111.423 132.152 111.423C132.597 111.423 132.952 111.331 133.218 111.146C133.484 110.959 133.617 110.731 133.617 110.462C133.617 110.244 133.535 110.061 133.372 109.913C133.212 109.765 132.965 109.653 132.633 109.577L131.454 109.319C130.804 109.171 130.324 108.935 130.012 108.612C129.704 108.288 129.55 107.879 129.55 107.383C129.55 106.972 129.665 106.612 129.894 106.304C130.124 105.995 130.441 105.755 130.847 105.583C131.252 105.408 131.716 105.32 132.238 105.32C132.991 105.32 133.584 105.483 134.016 105.81C134.448 106.133 134.734 106.567 134.873 107.111ZM141.463 107.111L140.234 107.328C140.183 107.171 140.101 107.022 139.989 106.88C139.88 106.738 139.732 106.621 139.545 106.53C139.358 106.44 139.123 106.394 138.842 106.394C138.458 106.394 138.138 106.481 137.881 106.653C137.624 106.822 137.496 107.041 137.496 107.31C137.496 107.543 137.582 107.731 137.754 107.873C137.926 108.015 138.204 108.131 138.588 108.222L139.695 108.476C140.335 108.624 140.813 108.852 141.127 109.16C141.442 109.469 141.599 109.869 141.599 110.362C141.599 110.779 141.478 111.151 141.236 111.477C140.997 111.801 140.663 112.055 140.234 112.239C139.808 112.423 139.314 112.516 138.751 112.516C137.972 112.516 137.335 112.349 136.843 112.017C136.35 111.681 136.048 111.205 135.936 110.589L137.246 110.389C137.328 110.731 137.496 110.989 137.749 111.164C138.003 111.337 138.334 111.423 138.742 111.423C139.187 111.423 139.542 111.331 139.808 111.146C140.074 110.959 140.207 110.731 140.207 110.462C140.207 110.244 140.125 110.061 139.962 109.913C139.802 109.765 139.556 109.653 139.223 109.577L138.044 109.319C137.394 109.171 136.914 108.935 136.602 108.612C136.294 108.288 136.14 107.879 136.14 107.383C136.14 106.972 136.255 106.612 136.484 106.304C136.714 105.995 137.032 105.755 137.437 105.583C137.842 105.408 138.306 105.32 138.829 105.32C139.581 105.32 140.174 105.483 140.606 105.81C141.038 106.133 141.324 106.567 141.463 107.111ZM145.768 112.516C145.115 112.516 144.545 112.366 144.058 112.067C143.572 111.767 143.194 111.349 142.925 110.811C142.656 110.273 142.521 109.644 142.521 108.925C142.521 108.202 142.656 107.57 142.925 107.029C143.194 106.488 143.572 106.068 144.058 105.769C144.545 105.469 145.115 105.32 145.768 105.32C146.421 105.32 146.99 105.469 147.477 105.769C147.964 106.068 148.342 106.488 148.611 107.029C148.88 107.57 149.014 108.202 149.014 108.925C149.014 109.644 148.88 110.273 148.611 110.811C148.342 111.349 147.964 111.767 147.477 112.067C146.99 112.366 146.421 112.516 145.768 112.516ZM145.772 111.377C146.195 111.377 146.546 111.266 146.824 111.042C147.102 110.818 147.308 110.521 147.441 110.149C147.577 109.777 147.645 109.367 147.645 108.92C147.645 108.476 147.577 108.068 147.441 107.696C147.308 107.321 147.102 107.02 146.824 106.793C146.546 106.567 146.195 106.453 145.772 106.453C145.346 106.453 144.992 106.567 144.711 106.793C144.433 107.02 144.226 107.321 144.09 107.696C143.957 108.068 143.891 108.476 143.891 108.92C143.891 109.367 143.957 109.777 144.09 110.149C144.226 110.521 144.433 110.818 144.711 111.042C144.992 111.266 145.346 111.377 145.772 111.377ZM151.628 108.24V112.375H150.272V105.411H151.573V106.544H151.66C151.82 106.175 152.071 105.879 152.412 105.655C152.757 105.432 153.191 105.32 153.714 105.32C154.188 105.32 154.604 105.42 154.96 105.619C155.317 105.816 155.594 106.109 155.79 106.499C155.987 106.889 156.085 107.371 156.085 107.945V112.375H154.729V108.108C154.729 107.604 154.598 107.209 154.335 106.925C154.072 106.638 153.711 106.494 153.251 106.494C152.937 106.494 152.657 106.562 152.412 106.698C152.17 106.834 151.978 107.034 151.836 107.297C151.697 107.557 151.628 107.871 151.628 108.24Z"
        fill="white"
    />
    <mask
        id="path-10-outside-1_537_27582"
        maskUnits="userSpaceOnUse"
        x="191.823"
        y="97.8035"
        width="39.1832"
        height="39.1832"
        fill="black"
    >
        <rect
            fill="white"
            x="191.823"
            y="97.8035"
            width="39.1832"
            height="39.1832"
        />
        <path
            fill-rule="evenodd"
            clipRule="evenodd"
            d="M199.318 102.78L199.315 102.779C198.728 102.618 198.108 102.624 197.524 102.798C196.94 102.971 196.415 103.305 196.011 103.761C195.607 104.218 195.339 104.778 195.238 105.379C195.136 105.98 195.206 106.598 195.438 107.162L196.45 106.744C195.438 107.162 195.438 107.162 195.438 107.162L195.44 107.167L195.445 107.18L195.466 107.23L195.548 107.428L195.858 108.178L196.966 110.86C197.884 113.08 199.108 116.044 200.336 119.017C201.565 121.991 202.797 124.975 203.729 127.235C204.195 128.366 204.587 129.315 204.865 129.991L205.193 130.789L205.284 131.012L205.31 131.074C205.313 131.084 205.314 131.086 205.313 131.082C205.482 131.532 205.716 131.92 206.093 132.253C206.526 132.636 207.092 132.83 207.668 132.795C208.244 132.76 208.783 132.498 209.165 132.066C209.313 131.899 209.444 131.72 209.552 131.473C209.637 131.277 209.697 131.055 209.753 130.851L209.756 130.841C209.817 130.618 210.689 127.503 211.547 124.437L212.718 120.254L213.101 118.885L213.104 118.875L213.119 118.869L214.439 118.31C215.533 117.846 216.995 117.227 218.468 116.602C221.38 115.366 224.417 114.075 224.619 113.976C224.646 113.963 224.679 113.948 224.717 113.93C224.954 113.822 225.372 113.63 225.695 113.265C226.078 112.833 226.274 112.266 226.238 111.69C226.203 111.114 225.94 110.575 225.508 110.193L225.49 110.176C225.432 110.121 225.258 109.959 225.072 109.843C224.821 109.688 224.548 109.595 224.234 109.524C224.234 109.524 224.234 109.524 224.229 109.522L224.151 109.502L223.909 109.438C223.703 109.384 223.416 109.307 223.058 109.211C222.342 109.018 221.346 108.75 220.164 108.43C217.8 107.792 214.696 106.951 211.607 106.114C208.518 105.276 205.445 104.443 203.143 103.818L200.366 103.064L199.588 102.853L199.384 102.798L199.331 102.784L199.318 102.78Z"
        />
    </mask>
    <path
        fillRule="evenodd"
        clipRule="evenodd"
        d="M199.318 102.78L199.315 102.779C198.728 102.618 198.108 102.624 197.524 102.798C196.94 102.971 196.415 103.305 196.011 103.761C195.607 104.218 195.339 104.778 195.238 105.379C195.136 105.98 195.206 106.598 195.438 107.162L196.45 106.744C195.438 107.162 195.438 107.162 195.438 107.162L195.44 107.167L195.445 107.18L195.466 107.23L195.548 107.428L195.858 108.178L196.966 110.86C197.884 113.08 199.108 116.044 200.336 119.017C201.565 121.991 202.797 124.975 203.729 127.235C204.195 128.366 204.587 129.315 204.865 129.991L205.193 130.789L205.284 131.012L205.31 131.074C205.313 131.084 205.314 131.086 205.313 131.082C205.482 131.532 205.716 131.92 206.093 132.253C206.526 132.636 207.092 132.83 207.668 132.795C208.244 132.76 208.783 132.498 209.165 132.066C209.313 131.899 209.444 131.72 209.552 131.473C209.637 131.277 209.697 131.055 209.753 130.851L209.756 130.841C209.817 130.618 210.689 127.503 211.547 124.437L212.718 120.254L213.101 118.885L213.104 118.875L213.119 118.869L214.439 118.31C215.533 117.846 216.995 117.227 218.468 116.602C221.38 115.366 224.417 114.075 224.619 113.976C224.646 113.963 224.679 113.948 224.717 113.93C224.954 113.822 225.372 113.63 225.695 113.265C226.078 112.833 226.274 112.266 226.238 111.69C226.203 111.114 225.94 110.575 225.508 110.193L225.49 110.176C225.432 110.121 225.258 109.959 225.072 109.843C224.821 109.688 224.548 109.595 224.234 109.524C224.234 109.524 224.234 109.524 224.229 109.522L224.151 109.502L223.909 109.438C223.703 109.384 223.416 109.307 223.058 109.211C222.342 109.018 221.346 108.75 220.164 108.43C217.8 107.792 214.696 106.951 211.607 106.114C208.518 105.276 205.445 104.443 203.143 103.818L200.366 103.064L199.588 102.853L199.384 102.798L199.331 102.784L199.318 102.78Z"
        fill="#362E83"
    />
    <path
        d="M223.058 109.211L222.695 110.555L222.698 110.556L223.058 109.211ZM224.269 108.093L223.418 107.865L222.698 110.556L223.549 110.784L224.269 108.093ZM223.42 107.866L220.526 107.085L219.801 109.775L222.695 110.555L223.42 107.866ZM202.441 127.766L203.577 130.522L206.153 129.46L205.017 126.705L202.441 127.766ZM199.318 102.78L198.587 105.468L198.588 105.468L199.318 102.78ZM199.315 102.779L198.577 105.466L198.584 105.467L199.315 102.779ZM197.524 102.798L198.317 105.468L198.317 105.468L197.524 102.798ZM196.011 103.761L193.926 101.914L193.926 101.914L196.011 103.761ZM195.238 105.379L192.491 104.916L192.491 104.916L195.238 105.379ZM195.438 107.162L192.862 108.223L192.863 108.225L195.438 107.162ZM196.45 106.744L197.514 109.319L195.388 104.169L196.45 106.744ZM195.44 107.167L198.015 106.103L198.015 106.102L195.44 107.167ZM195.445 107.18L192.871 108.243L192.871 108.244L195.445 107.18ZM195.466 107.23L198.041 106.166L198.041 106.166L195.466 107.23ZM195.548 107.428L192.973 108.492L192.973 108.492L195.548 107.428ZM195.858 108.178L198.433 107.115L198.433 107.114L195.858 108.178ZM196.966 110.86L199.541 109.796L199.541 109.796L196.966 110.86ZM203.729 127.235L206.304 126.173L206.304 126.173L203.729 127.235ZM204.865 129.991L207.442 128.932L207.441 128.931L204.865 129.991ZM205.193 130.789L207.772 129.735L207.77 129.731L205.193 130.789ZM205.284 131.012L207.866 129.965L207.863 129.957L205.284 131.012ZM205.31 131.074L207.898 130.044L207.895 130.036L207.891 130.028L205.31 131.074ZM205.313 131.082L207.916 130.089L202.706 132.065L205.313 131.082ZM206.093 132.253L204.248 134.34L204.248 134.34L206.093 132.253ZM209.165 132.066L211.251 133.913L211.252 133.912L209.165 132.066ZM209.552 131.473L212.106 132.584L212.106 132.583L209.552 131.473ZM209.753 130.851L207.068 130.108L207.066 130.116L209.753 130.851ZM209.756 130.841L212.441 131.584L212.443 131.577L209.756 130.841ZM211.547 124.437L208.864 123.686L208.864 123.686L211.547 124.437ZM212.718 120.254L210.036 119.503L210.036 119.503L212.718 120.254ZM213.101 118.885L215.784 119.637L215.784 119.636L213.101 118.885ZM213.104 118.875L212.018 116.31L210.783 116.833L210.421 118.125L213.104 118.875ZM213.119 118.869L214.205 121.434L214.205 121.434L213.119 118.869ZM214.439 118.31L215.526 120.875L215.526 120.875L214.439 118.31ZM218.468 116.602L219.556 119.166L219.556 119.166L218.468 116.602ZM224.619 113.976L225.845 116.478L225.848 116.476L224.619 113.976ZM224.717 113.93L223.555 111.398L223.555 111.398L224.717 113.93ZM225.695 113.265L223.61 111.418L223.61 111.418L225.695 113.265ZM225.508 110.193L223.613 112.234L223.637 112.257L223.663 112.28L225.508 110.193ZM225.49 110.176L223.588 112.212L223.595 112.218L225.49 110.176ZM225.072 109.843L226.541 107.477L226.541 107.476L225.072 109.843ZM224.234 109.524L224.854 106.808L223.601 112.236L224.234 109.524ZM224.229 109.522L224.933 106.827L224.925 106.825L224.229 109.522ZM224.151 109.502L223.44 112.196L223.448 112.198L223.456 112.2L224.151 109.502ZM223.909 109.438L223.193 112.131L223.198 112.132L223.909 109.438ZM223.058 109.211L222.335 111.901L222.335 111.901L223.058 109.211ZM220.164 108.43L219.437 111.12L219.437 111.12L220.164 108.43ZM211.607 106.114L210.878 108.802L210.878 108.802L211.607 106.114ZM203.143 103.818L202.414 106.507L202.414 106.507L203.143 103.818ZM200.366 103.064L199.636 105.753L199.636 105.753L200.366 103.064ZM199.588 102.853L198.859 105.542L198.859 105.542L199.588 102.853ZM199.384 102.798L200.114 100.109L200.113 100.109L199.384 102.798ZM199.331 102.784L198.601 105.472L198.602 105.472L199.331 102.784ZM200.05 100.092L200.047 100.091L198.584 105.467L198.587 105.468L200.05 100.092ZM200.053 100.093C198.964 99.7939 197.814 99.8057 196.731 100.127L198.317 105.468C198.402 105.443 198.492 105.442 198.577 105.466L200.053 100.093ZM196.731 100.127C195.648 100.449 194.676 101.068 193.926 101.914L198.097 105.608C198.155 105.542 198.231 105.493 198.317 105.468L196.731 100.127ZM193.926 101.914C193.176 102.761 192.679 103.801 192.491 104.916L197.985 105.842C197.999 105.756 198.038 105.674 198.097 105.608L193.926 101.914ZM192.491 104.916C192.302 106.032 192.431 107.177 192.862 108.223L198.014 106.1C197.98 106.018 197.97 105.929 197.985 105.842L192.491 104.916ZM196.5 109.737L197.511 109.32L195.388 104.169L194.376 104.586L196.5 109.737ZM195.386 104.17C194.88 104.379 194.629 104.482 194.505 104.533C194.443 104.559 194.415 104.57 194.404 104.575C194.397 104.577 194.401 104.576 194.409 104.573C194.411 104.572 194.425 104.566 194.445 104.559C194.45 104.557 194.481 104.545 194.521 104.531C194.532 104.527 194.594 104.505 194.674 104.483C194.698 104.476 194.821 104.44 194.981 104.414C195.038 104.404 195.264 104.366 195.556 104.378C195.798 104.399 196.226 104.49 196.412 104.551C197.374 105.158 198.013 106.098 195.438 107.162C192.863 108.225 193.502 109.165 194.464 109.772C194.65 109.834 195.078 109.924 195.32 109.945C195.612 109.957 195.838 109.919 195.895 109.91C196.055 109.883 196.177 109.848 196.202 109.841C196.282 109.818 196.344 109.796 196.355 109.792C196.395 109.778 196.426 109.766 196.432 109.764C196.452 109.756 196.467 109.75 196.471 109.749C196.483 109.744 196.494 109.739 196.504 109.735C196.525 109.727 196.56 109.713 196.624 109.686C196.753 109.633 197.008 109.528 197.514 109.319L195.386 104.17ZM192.864 108.226L192.866 108.231L198.015 106.102L198.012 106.097L192.864 108.226ZM192.865 108.23L192.871 108.243L198.02 106.116L198.015 106.103L192.865 108.23ZM192.871 108.244L192.892 108.294L198.041 106.166L198.02 106.115L192.871 108.244ZM192.892 108.294L192.973 108.492L198.123 106.364L198.041 106.166L192.892 108.294ZM192.973 108.492L193.284 109.242L198.433 107.114L198.123 106.364L192.973 108.492ZM193.284 109.242L194.391 111.923L199.541 109.796L198.433 107.115L193.284 109.242ZM194.391 111.923C195.309 114.144 196.533 117.107 197.762 120.081L202.911 117.954C201.683 114.98 200.458 112.016 199.541 109.796L194.391 111.923ZM197.762 120.081C198.99 123.055 200.222 126.038 201.154 128.298L206.304 126.173C205.372 123.912 204.139 120.928 202.911 117.954L197.762 120.081ZM201.154 128.298C201.62 129.428 202.011 130.376 202.289 131.052L207.441 128.931C207.162 128.253 206.771 127.304 206.304 126.173L201.154 128.298ZM202.289 131.05L202.617 131.848L207.77 129.731L207.442 128.932L202.289 131.05ZM202.615 131.844L202.706 132.067L207.863 129.957L207.772 129.735L202.615 131.844ZM202.702 132.058L202.728 132.12L207.891 130.028L207.866 129.966L202.702 132.058ZM202.721 132.104C202.722 132.105 202.729 132.123 202.736 132.142C202.738 132.145 202.74 132.152 202.744 132.16C202.746 132.165 202.754 132.183 202.764 132.206C202.768 132.216 202.78 132.242 202.795 132.275C202.803 132.291 202.818 132.323 202.838 132.361C202.847 132.379 202.902 132.488 202.988 132.617C203.012 132.654 203.147 132.864 203.374 133.084C203.466 133.173 203.778 133.471 204.282 133.672C204.893 133.915 206.058 134.08 207.085 133.234C207.854 132.6 208.015 131.792 208.051 131.602C208.106 131.311 208.101 131.078 208.097 130.979C208.089 130.766 208.058 130.602 208.049 130.555C208.025 130.432 207.997 130.338 207.991 130.316C207.981 130.279 207.971 130.249 207.966 130.233C207.949 130.181 207.934 130.139 207.933 130.137C207.929 130.124 207.925 130.115 207.923 130.11C207.92 130.1 207.917 130.092 207.916 130.089L202.71 132.076C202.709 132.073 202.707 132.066 202.703 132.057C202.701 132.052 202.698 132.043 202.693 132.03C202.693 132.029 202.678 131.987 202.661 131.934C202.656 131.919 202.646 131.889 202.635 131.852C202.629 131.83 202.602 131.736 202.578 131.613C202.569 131.565 202.538 131.402 202.53 131.189C202.526 131.09 202.521 130.857 202.576 130.566C202.612 130.376 202.773 129.567 203.542 128.934C204.569 128.088 205.734 128.252 206.345 128.496C206.849 128.697 207.16 128.994 207.253 129.084C207.479 129.304 207.615 129.514 207.639 129.55C207.724 129.68 207.78 129.789 207.789 129.806C207.809 129.845 207.824 129.876 207.832 129.892C207.847 129.925 207.859 129.951 207.863 129.961C207.873 129.984 207.881 130.002 207.883 130.007C207.886 130.015 207.888 130.021 207.89 130.024C207.896 130.04 207.901 130.053 207.898 130.044L202.721 132.104ZM202.706 132.065C202.998 132.838 203.459 133.642 204.248 134.34L207.939 130.166C207.939 130.166 207.94 130.167 207.942 130.169C207.944 130.171 207.946 130.174 207.949 130.177C207.955 130.184 207.959 130.189 207.96 130.192C207.964 130.198 207.948 130.176 207.92 130.1L202.706 132.065ZM204.248 134.34C205.234 135.212 206.525 135.656 207.838 135.576L207.498 130.015C207.659 130.005 207.817 130.059 207.939 130.166L204.248 134.34ZM207.838 135.576C209.15 135.496 210.378 134.898 211.251 133.913L207.08 130.219C207.187 130.098 207.338 130.024 207.498 130.015L207.838 135.576ZM211.252 133.912C211.531 133.596 211.85 133.173 212.106 132.584L206.997 130.362C207.012 130.327 207.034 130.287 207.059 130.249C207.082 130.214 207.096 130.201 207.079 130.22L211.252 133.912ZM212.106 132.583C212.285 132.172 212.395 131.752 212.44 131.587L207.066 130.116C207.036 130.225 207.02 130.285 207.003 130.337C206.988 130.387 206.985 130.389 206.997 130.362L212.106 132.583ZM212.438 131.594L212.441 131.584L207.071 130.099L207.068 130.108L212.438 131.594ZM212.443 131.577C212.501 131.363 213.369 128.263 214.23 125.188L208.864 123.686C208.008 126.743 207.133 129.872 207.069 130.106L212.443 131.577ZM214.23 125.188L215.401 121.005L210.036 119.503L208.864 123.686L214.23 125.188ZM215.401 121.005L215.784 119.637L210.419 118.134L210.036 119.503L215.401 121.005ZM215.784 119.636L215.787 119.625L210.421 118.125L210.419 118.135L215.784 119.636ZM214.191 121.44L214.205 121.434L212.032 116.304L212.018 116.31L214.191 121.44ZM214.205 121.434L215.526 120.875L213.353 115.745L212.032 116.304L214.205 121.434ZM215.526 120.875C216.62 120.411 218.083 119.791 219.556 119.166L217.38 114.037C215.908 114.662 214.446 115.281 213.352 115.745L215.526 120.875ZM219.556 119.166C222.386 117.966 225.552 116.621 225.845 116.478L223.393 111.475C223.423 111.46 223.289 111.52 222.881 111.695C222.527 111.848 222.041 112.056 221.467 112.3C220.321 112.789 218.835 113.42 217.38 114.037L219.556 119.166ZM225.848 116.476C225.841 116.48 225.837 116.482 225.836 116.482C225.835 116.482 225.836 116.482 225.839 116.481C225.843 116.479 225.847 116.477 225.854 116.474C225.861 116.47 225.868 116.467 225.878 116.463L223.555 111.398C223.53 111.41 223.458 111.443 223.39 111.476L225.848 116.476ZM225.878 116.463C226.104 116.359 227.026 115.964 227.781 115.112L223.61 111.418C223.646 111.377 223.677 111.35 223.694 111.336C223.712 111.322 223.721 111.317 223.716 111.32C223.712 111.322 223.699 111.33 223.674 111.343C223.661 111.349 223.646 111.356 223.627 111.365C223.607 111.375 223.586 111.384 223.555 111.398L225.878 116.463ZM227.78 115.112C228.653 114.127 229.099 112.835 229.019 111.52L223.458 111.859C223.448 111.697 223.503 111.538 223.61 111.418L227.78 115.112ZM229.019 111.52C228.939 110.206 228.339 108.977 227.353 108.106L223.663 112.28C223.542 112.173 223.468 112.022 223.458 111.859L229.019 111.52ZM227.403 108.151L227.386 108.135L223.595 112.218L223.613 112.234L227.403 108.151ZM227.392 108.141C227.342 108.094 226.988 107.754 226.541 107.477L223.602 112.21C223.584 112.199 223.57 112.19 223.561 112.183C223.552 112.177 223.546 112.173 223.543 112.17C223.539 112.168 223.538 112.166 223.538 112.167C223.538 112.167 223.54 112.168 223.542 112.17C223.547 112.174 223.554 112.18 223.561 112.187C223.565 112.19 223.569 112.193 223.573 112.197C223.577 112.201 223.581 112.205 223.588 112.212L227.392 108.141ZM226.541 107.476C225.929 107.097 225.328 106.916 224.854 106.808L223.614 112.24C223.651 112.248 223.676 112.255 223.692 112.259C223.707 112.264 223.712 112.265 223.707 112.264C223.703 112.262 223.69 112.257 223.671 112.248C223.651 112.239 223.628 112.226 223.602 112.21L226.541 107.476ZM224.234 109.524C223.601 112.236 223.601 112.237 223.602 112.237C223.602 112.237 223.603 112.237 223.604 112.237C223.605 112.237 223.606 112.238 223.607 112.238C223.61 112.239 223.613 112.239 223.616 112.24C223.622 112.241 223.63 112.243 223.64 112.245C223.649 112.247 223.665 112.251 223.686 112.255C223.7 112.258 223.745 112.267 223.802 112.276C223.829 112.28 223.891 112.289 223.971 112.297C224.011 112.301 224.081 112.307 224.17 112.309C224.233 112.31 224.428 112.314 224.675 112.274C224.806 112.25 225.135 112.16 225.329 112.085C225.622 111.939 226.29 111.403 226.61 110.978C226.887 110.373 226.993 109.138 226.853 108.573C226.704 108.236 226.371 107.737 226.215 107.565C225.941 107.288 225.672 107.137 225.618 107.106C225.518 107.049 225.435 107.009 225.392 106.99C225.25 106.925 225.13 106.886 225.128 106.885C225.095 106.874 225.069 106.866 225.057 106.862C225.031 106.854 225.011 106.848 225.004 106.846C224.995 106.844 224.987 106.842 224.983 106.84C224.974 106.838 224.967 106.836 224.964 106.835C224.953 106.832 224.944 106.83 224.944 106.83C224.94 106.829 224.936 106.828 224.933 106.827L223.526 112.218C223.528 112.218 223.526 112.218 223.523 112.217C223.522 112.217 223.52 112.216 223.518 112.216C223.516 112.215 223.511 112.214 223.504 112.212C223.501 112.211 223.494 112.209 223.486 112.207C223.481 112.206 223.474 112.204 223.464 112.201C223.457 112.199 223.437 112.193 223.412 112.185C223.4 112.182 223.373 112.173 223.34 112.162C223.338 112.161 223.218 112.122 223.076 112.057C223.034 112.038 222.95 111.999 222.85 111.941C222.796 111.91 222.527 111.759 222.254 111.483C222.097 111.311 221.764 110.811 221.616 110.474C221.475 109.909 221.581 108.674 221.858 108.07C222.178 107.644 222.846 107.108 223.139 106.962C223.333 106.888 223.662 106.797 223.793 106.773C224.04 106.733 224.236 106.737 224.299 106.739C224.387 106.741 224.457 106.747 224.497 106.75C224.577 106.758 224.64 106.767 224.666 106.772C224.724 106.781 224.768 106.79 224.783 106.792C224.803 106.796 224.819 106.8 224.828 106.802C224.838 106.804 224.847 106.806 224.852 106.807C224.856 106.808 224.858 106.809 224.861 106.809C224.862 106.81 224.863 106.81 224.864 106.81C224.865 106.81 224.866 106.81 224.866 106.811C224.867 106.811 224.868 106.811 224.234 109.524ZM224.925 106.825L224.847 106.805L223.456 112.2L223.534 112.22L224.925 106.825ZM224.862 106.809L224.619 106.745L223.198 112.132L223.44 112.196L224.862 106.809ZM224.624 106.746C224.422 106.692 224.138 106.616 223.78 106.52L222.335 111.901C222.694 111.997 222.984 112.075 223.193 112.131L224.624 106.746ZM223.78 106.52C223.066 106.328 222.072 106.06 220.89 105.741L219.437 111.12C220.619 111.439 221.617 111.708 222.335 111.901L223.78 106.52ZM220.89 105.741C218.528 105.103 215.424 104.262 212.336 103.425L210.878 108.802C213.967 109.64 217.073 110.481 219.437 111.12L220.89 105.741ZM212.336 103.425C209.247 102.588 206.174 101.754 203.873 101.13L202.414 106.507C204.715 107.131 207.789 107.965 210.878 108.802L212.336 103.425ZM203.873 101.13L201.095 100.376L199.636 105.753L202.414 106.507L203.873 101.13ZM201.095 100.376L200.318 100.165L198.859 105.542L199.636 105.753L201.095 100.376ZM200.318 100.165L200.114 100.109L198.654 105.486L198.859 105.542L200.318 100.165ZM200.113 100.109L200.061 100.095L198.602 105.472L198.654 105.486L200.113 100.109ZM200.062 100.095L200.048 100.092L198.588 105.468L198.601 105.472L200.062 100.095Z"
        fill="white"
        mask="url(#path-10-outside-1_537_27582)"
    />
    <rect x="164" y="21" width="54" height="6" rx="3" fill="#F2F3F4" />
    <rect x="180" y="30" width="38" height="6" rx="3" fill="#F2F3F4" />
    <defs>
        <clipPath id="clip0_537_27582">
            <rect
                width="10.3232"
                height="10.3232"
                fill="white"
                transform="translate(28.2656 59.9844)"
            />
        </clipPath>
    </defs>
</svg>