<svg width="600" height="600" viewBox="0 0 600 600" fill="none" xmlns="http://www.w3.org/2000/svg">
<mask id="mask0_498_14741" style="mask-type:alpha" maskUnits="userSpaceOnUse" x="0" y="0" width="600" height="600">
<rect width="600" height="600" fill="#D5F3FF"/>
</mask>
<g mask="url(#mask0_498_14741)">
<path d="M88.6495 939.413C88.8066 913.233 86.8306 898.02 75.006 834.021C67.4069 792.884 61.1884 758.089 61.1884 756.698C61.1884 751.278 54.3104 754.846 31.7553 771.971L8.3064 789.772H-70.0358H-148.377L-203.473 818.023C-233.775 833.562 -286.292 861.025 -320.176 879.055L-381.783 911.834L-421.857 909.884C-443.895 908.812 -462.531 907.866 -463.265 907.782C-463.998 907.705 -458.584 904.682 -451.224 901.08C-443.866 897.478 -437.845 893.667 -437.845 892.612C-437.845 891.555 -451.881 881.252 -469.037 869.715C-601.499 780.627 -673.473 730.595 -670.935 729.366C-669.301 728.574 -658.87 726.716 -647.757 725.238L-627.55 722.549L-511.292 782.02C-447.35 814.728 -393.58 841.959 -391.805 842.533C-389.501 843.279 -388.352 838.833 -387.791 827.01L-387.006 810.442L-182.109 672.22L22.7875 533.998L35.5751 510.755L48.3602 487.513L183.212 376.991L318.064 266.469V161.312V56.1548L353.06 35.5774L388.056 15L483.504 18.7639C536.001 20.8341 579.128 22.6813 579.341 22.8689C579.55 23.0561 580.978 35.7263 582.504 51.0242C584.603 72.0887 584.509 79.443 582.124 81.3298C580.385 82.6999 551.052 98.0337 516.936 115.405C482.822 132.776 453.812 148.177 452.466 149.628C450.002 152.289 387.454 462.18 387.709 470.464C387.866 472.911 402.756 496.938 420.981 523.856C439.208 550.775 453.677 573.167 453.135 573.616C452.599 574.067 446.053 573.218 438.597 571.73C420.975 568.215 416.255 569.621 419.784 577.336C421.244 580.519 422.43 583.982 422.43 585.032C422.43 587.292 398.496 581.885 343.443 567.189C321.338 561.289 299.714 556.137 295.387 555.74L287.522 555.019L280.132 583.946C276.07 599.855 270.255 621.884 267.213 632.899C264.169 643.913 258.369 666.443 254.321 682.964L246.965 713.004L218.509 725.242C202.859 731.973 189.408 738.022 188.622 738.683C187.836 739.345 198.13 751.771 211.504 766.298L235.819 792.709L234.215 806.993C233.338 814.849 230.577 835.715 228.093 853.36L223.577 885.443L206.669 903.806L189.76 922.167L214.058 942.468L238.357 962.768L216.003 964.212C181.775 966.425 109.21 969.991 98.2546 970H88.4846L88.6678 939.404L88.6495 939.413Z" fill="#1F374E"/>
</g>
</svg>
