<svg width="40" height="41" viewBox="0 0 40 41" fill="none" xmlns="http://www.w3.org/2000/svg">
    <path fill-rule="evenodd" clip-rule="evenodd"
        d="M13.5195 36.6588C13.5195 36.6588 14.6983 34.7726 13.1422 33.5467C11.5862 32.3207 4.84318 29.2085 4.74887 19.4005C4.65456 9.59256 14.7455 4.49996 19.8852 4.64142C25.025 4.78288 34.6804 9.30788 34.6915 19.4005C34.7029 29.8582 27.8555 35.1367 20.0199 35.1367C18.6319 35.1491 17.4493 36.1383 17.4392 37.561C17.4519 38.5787 17.8722 40.1077 20.1062 40.0743C32.1479 40.1132 39.5821 29.6388 39.5955 19.4655C38.995 9.61784 31.9583 -0.0145524 19.8785 0.000425211C16.9667 -0.0319566 0.543048 1.7443 0.00956422 19.4159C-0.208981 26.6553 3.36875 31.1596 5.52527 33.5735C8.50196 36.9054 10.8712 37.6231 10.8712 37.6231C10.8712 37.6231 12.5546 38.1739 13.5195 36.6588Z"
        fill="#D4D8D8" />
    <path fill-rule="evenodd" clip-rule="evenodd"
        d="M17.5645 30.0344L17.659 8.78299C17.659 8.78299 18.1077 6.75797 19.9109 6.72458C21.7142 6.69119 22.3152 7.75977 22.3152 8.72818C22.3152 9.69658 22.3486 29.9663 22.3486 29.9663C22.3486 29.9663 21.0797 33.4058 20.0111 33.4058C18.9425 33.4058 17.5645 30.0344 17.5645 30.0344Z"
        fill="#D4D4D8" />
    <path
        d="M19.7357 40.1691C21.045 40.1691 22.1063 39.0526 22.1063 37.6753C22.1063 36.298 21.045 35.1815 19.7357 35.1815C18.4264 35.1815 17.3651 36.298 17.3651 37.6753C17.3651 39.0526 18.4264 40.1691 19.7357 40.1691Z"
        fill="#00817E" stroke="#009588" stroke-opacity="0.01" stroke-width="0.0115081"
        stroke-linejoin="round" />
</svg>
    