<svg width="60" height="58" viewBox="0 0 60 58" fill="none" xmlns="http://www.w3.org/2000/svg">
    <path fill-rule="evenodd" clip-rule="evenodd"
        d="M37.8851 0.743286H56.706C57.4949 0.743286 58.2515 1.05666 58.8093 1.61448C59.3671 2.17229 59.6805 2.92885 59.6805 3.71771V48.3341C59.6805 49.123 59.3671 49.8795 58.8093 50.4373C58.2515 50.9951 57.4949 51.3085 56.706 51.3085H39.5793C38.0023 51.3121 36.4907 51.9386 35.3735 53.0515L32.0391 56.3859C32.0257 56.3993 32.0101 56.4082 31.9945 56.4171C31.9789 56.426 31.9633 56.4349 31.9499 56.4483C31.6941 56.6833 31.4086 56.8945 31.0754 57.0313H31.0695C30.3438 57.3317 29.5286 57.3317 28.803 57.0313H28.797C28.4639 56.8945 28.1783 56.6863 27.9225 56.4483C27.9091 56.4349 27.8935 56.426 27.8779 56.4171C27.8623 56.4082 27.8467 56.3993 27.8333 56.3859L24.499 53.0515C23.3818 51.9386 21.8701 51.3121 20.2931 51.3085H3.16638C2.37751 51.3085 1.62096 50.9951 1.06314 50.4373C0.505331 49.8795 0.191956 49.123 0.191956 48.3341V3.71771C0.191956 2.92885 0.505331 2.17229 1.06314 1.61448C1.62096 1.05666 2.37751 0.743286 3.16638 0.743286H21.9874C24.1897 0.750745 28.3103 2.57781 29.9362 4.06334C31.5621 2.57781 35.6827 0.750745 37.8851 0.743286ZM31.4255 14.2521C30.8238 13.006 29.0488 13.006 28.4471 14.2521L25.1225 21.1368C24.7166 21.9775 24.038 22.6561 23.1973 23.062L16.3126 26.3866C15.0664 26.9883 15.0664 28.7633 16.3126 29.365L23.1973 32.6896C24.038 33.0955 24.7166 33.7741 25.1225 34.6148L28.4471 41.4995C29.0488 42.7457 30.8238 42.7457 31.4255 41.4995L34.7501 34.6148C35.156 33.7741 35.8346 33.0955 36.6753 32.6896L43.56 29.365C44.8062 28.7633 44.8062 26.9883 43.56 26.3866L36.6753 23.062C35.8346 22.6561 35.156 21.9775 34.7501 21.1368L31.4255 14.2521Z"
        fill="#5864FB" />
</svg>
    