<svg width="70" height="70" viewBox="0 0 70 70" fill="none" xmlns="http://www.w3.org/2000/svg">
    <path
        d="M62.4 0H6.93334C3.10416 0 0 3.10416 0 6.93334V62.4C0 66.2292 3.10416 69.3334 6.93334 69.3334H62.4C66.2292 69.3334 69.3334 66.2292 69.3334 62.4V6.93334C69.3334 3.10416 66.2292 0 62.4 0Z"
        fill="#6565E5" />
    <path
        d="M34.7234 11.4228C21.9456 11.4228 11.5379 21.7789 11.5379 34.6082C11.5379 47.386 21.9456 57.7937 34.7234 57.7937C47.5011 57.7937 57.9088 47.386 57.9088 34.6082C57.9088 21.7789 47.5011 11.4228 34.7234 11.4228ZM43.9975 49.2409H43.843L34.7234 39.1423L25.6037 49.2409H25.4492V19.9756H43.9975V49.2409Z"
        fill="white" />
</svg>
    